if (_typeface_js && _typeface_js.loadFace) _typeface_js.loadFace({"glyphs":{"S":{"x_min":47.46875,"x_max":651.09375,"ha":701,"o":"m 352 986 q 470 973 420 986 q 556 946 520 963 q 623 910 594 930 q 575 826 607 881 q 561 826 571 826 q 511 857 539 843 q 450 878 485 868 q 366 888 413 888 q 299 876 330 888 q 246 843 269 864 q 212 794 225 822 q 199 736 199 766 q 233 645 199 680 q 316 581 267 610 q 425 531 366 556 q 534 472 484 507 q 618 389 584 439 q 651 264 651 340 q 630 150 651 200 q 569 62 610 99 q 469 6 529 25 q 332 -13 409 -13 q 211 -2 264 -13 q 122 23 158 8 q 47 62 78 40 q 96 146 63 90 q 109 146 99 146 q 166 113 134 127 q 233 93 193 103 q 318 82 271 82 q 462 130 412 82 q 512 249 512 176 q 478 340 512 305 q 396 402 446 377 q 286 454 345 430 q 177 512 227 478 q 94 596 127 546 q 61 721 61 645 q 81 827 61 778 q 138 911 101 876 q 230 967 176 946 q 352 986 284 986 "},"/":{"x_min":0,"x_max":569.703125,"ha":568,"o":"m 430 972 q 569 972 465 972 q 138 0 461 729 q 0 0 104 0 q 430 972 107 242 "},"ђ":{"x_min":33.90625,"x_max":679.578125,"ha":770,"o":"m 436 -97 q 511 -66 482 -97 q 539 27 539 -35 q 539 389 539 147 q 503 484 539 447 q 408 520 466 520 q 349 507 377 520 q 303 478 324 495 q 263 438 280 461 q 263 0 263 291 q 123 0 227 0 q 123 721 123 180 q 33 721 101 721 q 33 819 33 746 q 123 819 55 819 q 123 930 123 847 q 165 972 134 941 q 263 972 189 972 q 263 819 263 934 q 450 819 309 819 q 450 721 450 794 q 263 721 402 721 q 263 556 263 680 q 307 590 282 575 q 364 614 332 602 q 443 625 398 625 q 538 607 495 625 q 613 558 581 590 q 661 484 644 527 q 679 389 679 440 q 679 27 679 268 q 663 -63 679 -21 q 618 -132 647 -104 q 550 -179 590 -162 q 463 -193 511 -193 q 420 -191 440 -193 q 385 -184 400 -188 q 352 -173 367 -179 q 366 -82 358 -143 q 381 -82 370 -82 q 397 -90 387 -88 q 436 -97 413 -97 "},"y":{"x_min":20.34375,"x_max":638.890625,"ha":659,"o":"m 173 -193 q 238 -166 210 -193 q 278 -97 267 -138 q 305 0 287 -65 q 249 0 291 0 q 20 694 192 173 q 160 694 55 694 q 311 236 198 580 q 322 200 317 221 q 332 165 328 181 q 341 124 337 146 q 347 124 343 124 q 355 165 349 146 q 364 200 359 181 q 373 236 368 221 q 500 694 416 389 q 638 694 534 694 q 416 -97 583 496 q 335 -236 393 -180 q 187 -291 276 -291 q 130 -284 155 -291 q 85 -271 104 -279 q 48 -249 63 -263 q 82 -160 59 -219 q 97 -160 86 -160 q 119 -177 107 -170 q 143 -189 130 -184 q 173 -193 158 -193 "},"g":{"x_min":69.171875,"x_max":638.890625,"ha":742,"o":"m 500 520 q 458 562 481 543 q 412 591 439 577 q 354 603 386 603 q 298 590 325 603 q 250 545 272 576 q 219 466 231 515 q 208 347 208 417 q 221 223 208 274 q 253 141 233 173 q 305 97 276 111 q 367 82 335 82 q 420 88 396 82 q 462 97 444 92 q 500 111 482 103 q 500 520 500 248 m 638 -13 q 618 -127 638 -75 q 560 -215 598 -179 q 466 -271 520 -250 q 340 -291 411 -291 q 245 -280 287 -291 q 173 -253 204 -269 q 111 -215 137 -237 q 160 -131 127 -187 q 173 -131 162 -131 q 218 -164 192 -150 q 267 -184 238 -174 q 326 -193 294 -193 q 457 -151 415 -193 q 500 -13 500 -108 q 500 27 500 0 q 454 6 478 14 q 406 -8 432 -1 q 347 -13 379 -13 q 237 8 287 -13 q 149 74 185 31 q 90 188 111 120 q 69 347 69 255 q 90 505 69 439 q 143 618 111 573 q 223 686 179 663 q 320 708 269 708 q 409 693 371 708 q 472 659 447 678 q 520 611 501 637 q 527 611 523 611 q 541 694 531 632 q 638 694 565 694 q 638 -13 638 516 "},"е":{"x_min":69.171875,"x_max":638.890625,"ha":701,"o":"m 354 708 q 469 686 416 708 q 558 618 520 663 q 618 505 596 573 q 638 347 638 439 q 638 326 638 340 q 611 298 632 320 q 208 298 510 298 q 256 135 208 188 q 389 82 305 82 q 447 93 420 82 q 496 113 474 103 q 541 146 520 127 q 556 146 546 146 q 603 62 568 124 q 541 23 577 40 q 469 -2 511 8 q 374 -13 427 -13 q 151 75 234 -13 q 69 347 69 165 q 90 505 69 439 q 149 618 111 573 q 240 686 187 663 q 354 708 291 708 m 354 611 q 249 561 291 611 q 208 396 208 511 q 500 396 305 396 q 458 561 500 511 q 354 611 416 611 "},"б":{"x_min":75.96875,"x_max":659.234375,"ha":728,"o":"m 458 841 q 341 805 390 827 q 261 748 293 785 q 215 663 230 713 q 200 541 200 613 q 283 623 233 594 q 402 652 335 652 q 501 630 454 652 q 583 567 548 610 q 638 462 618 524 q 659 320 659 400 q 638 176 659 238 q 579 70 618 113 q 486 8 539 29 q 367 -13 432 -13 q 249 8 302 -13 q 157 70 195 29 q 97 176 118 113 q 75 320 75 238 q 75 451 75 363 q 97 674 75 584 q 162 820 119 763 q 275 910 207 878 q 438 959 343 941 q 632 992 501 969 q 652 874 637 963 q 458 841 603 866 m 367 548 q 260 493 305 548 q 215 320 215 439 q 260 138 215 193 q 367 82 305 82 q 476 138 430 82 q 520 320 520 193 q 476 493 520 439 q 367 548 430 548 "},"e":{"x_min":69.171875,"x_max":638.890625,"ha":701,"o":"m 354 708 q 469 686 416 708 q 558 618 520 663 q 618 505 596 573 q 638 347 638 439 q 638 326 638 340 q 611 298 632 320 q 208 298 510 298 q 256 135 208 188 q 389 82 305 82 q 447 93 420 82 q 496 113 474 103 q 541 146 520 127 q 556 146 546 146 q 603 62 568 124 q 541 23 577 40 q 469 -2 511 8 q 374 -13 427 -13 q 151 75 234 -13 q 69 347 69 165 q 90 505 69 439 q 149 618 111 573 q 240 686 187 663 q 354 708 291 708 m 354 611 q 249 561 291 611 q 208 396 208 511 q 500 396 305 396 q 458 561 500 511 q 354 611 416 611 "},"у":{"x_min":20.34375,"x_max":638.890625,"ha":659,"o":"m 173 -193 q 238 -166 210 -193 q 278 -97 267 -138 q 305 0 287 -65 q 249 0 291 0 q 20 694 192 173 q 160 694 55 694 q 311 236 198 580 q 322 200 317 221 q 332 165 328 181 q 341 124 337 146 q 347 124 343 124 q 355 165 349 146 q 364 200 359 181 q 373 236 368 221 q 500 694 416 389 q 638 694 534 694 q 416 -97 583 496 q 335 -236 393 -180 q 187 -291 276 -291 q 130 -284 155 -291 q 85 -271 104 -279 q 48 -249 63 -263 q 82 -160 59 -219 q 97 -160 86 -160 q 119 -177 107 -170 q 143 -189 130 -184 q 173 -193 158 -193 "},"J":{"x_min":0,"x_max":472.046875,"ha":590,"o":"m 173 82 q 293 126 252 82 q 333 264 333 169 q 333 972 333 500 q 472 972 367 972 q 472 264 472 794 q 400 56 472 127 q 187 -13 329 -13 q 111 -4 146 -13 q 51 16 75 5 q 0 48 21 31 q 42 138 13 78 q 55 138 44 138 q 92 111 71 123 q 128 92 108 100 q 173 82 150 82 "},"Ј":{"x_min":0,"x_max":472.046875,"ha":590,"o":"m 173 82 q 293 126 252 82 q 333 264 333 169 q 333 972 333 500 q 472 972 367 972 q 472 264 472 794 q 400 56 472 127 q 187 -13 329 -13 q 111 -4 146 -13 q 51 16 75 5 q 0 48 21 31 q 42 138 13 78 q 55 138 44 138 q 92 111 71 123 q 128 92 108 100 q 173 82 150 82 "},"Ѓ":{"x_min":124.796875,"x_max":667.375,"ha":680,"o":"m 124 0 q 124 972 124 242 q 667 972 260 972 q 667 874 667 948 q 264 874 565 874 q 264 0 264 656 q 124 0 229 0 m 562 1250 q 438 1041 531 1197 q 347 1041 415 1041 q 409 1250 363 1093 q 562 1250 447 1250 "},"ў":{"x_min":20.34375,"x_max":638.890625,"ha":659,"o":"m 173 -193 q 238 -166 210 -193 q 278 -97 267 -138 q 305 0 287 -65 q 249 0 291 0 q 20 694 192 173 q 160 694 55 694 q 311 236 198 580 q 322 200 317 221 q 332 165 328 181 q 341 124 337 146 q 347 124 343 124 q 355 165 349 146 q 364 200 359 181 q 373 236 368 221 q 500 694 416 389 q 638 694 534 694 q 416 -97 583 496 q 335 -236 393 -180 q 187 -291 276 -291 q 130 -284 155 -291 q 85 -271 104 -279 q 48 -249 63 -263 q 82 -160 59 -219 q 97 -160 86 -160 q 119 -177 107 -170 q 143 -189 130 -184 q 173 -193 158 -193 m 333 832 q 396 855 374 832 q 416 930 416 877 q 541 930 458 930 q 489 798 541 847 q 333 750 438 750 q 177 798 229 750 q 124 930 124 847 q 249 930 166 930 q 271 855 249 877 q 333 832 291 832 "},"^":{"x_min":0,"x_max":596.84375,"ha":597,"o":"m 347 999 q 596 611 409 903 q 458 611 562 611 q 298 861 417 674 q 138 611 259 798 q 0 611 104 611 q 249 999 62 708 q 347 999 274 999 "},"ґ":{"x_min":103.09375,"x_max":561.5625,"ha":575,"o":"m 103 694 q 436 694 185 694 q 450 819 439 725 q 561 819 477 819 q 561 596 561 763 q 241 596 481 596 q 241 0 241 447 q 103 0 207 0 q 103 694 103 173 "},"D":{"x_min":124.796875,"x_max":736.546875,"ha":813,"o":"m 124 0 q 124 972 124 242 q 333 972 177 972 q 507 945 431 972 q 633 859 583 918 q 710 709 685 801 q 736 485 736 617 q 710 263 736 355 q 633 112 685 170 q 507 27 583 54 q 333 0 431 0 q 124 0 264 0 m 333 97 q 444 116 396 97 q 527 181 495 135 q 579 302 561 227 q 596 485 596 377 q 579 670 596 595 q 527 790 561 744 q 444 855 495 835 q 333 874 396 874 q 264 874 310 874 q 264 97 264 680 q 333 97 280 97 "},"к":{"x_min":103.09375,"x_max":672.796875,"ha":708,"o":"m 421 360 q 476 343 451 356 q 516 310 497 332 q 546 256 537 290 q 581 124 558 212 q 623 82 591 82 q 642 85 632 82 q 651 90 648 88 q 657 90 653 90 q 672 0 661 67 q 648 -6 661 -4 q 588 -13 623 -13 q 497 16 530 -13 q 450 104 465 47 q 415 236 438 147 q 383 286 406 268 q 325 305 360 305 q 241 305 297 305 q 241 0 241 229 q 103 0 207 0 q 103 694 103 173 q 241 694 137 694 q 241 402 241 621 q 310 402 259 402 q 373 421 351 402 q 401 472 394 440 q 428 590 411 511 q 476 678 443 648 q 568 708 508 708 q 600 706 585 708 q 628 701 617 704 q 651 694 641 697 q 637 603 647 664 q 630 603 636 603 q 622 606 628 604 q 613 610 618 609 q 602 611 609 611 q 561 569 571 611 q 533 451 552 530 q 508 401 526 419 q 470 374 489 385 q 421 360 448 363 "},"ц":{"x_min":103.09375,"x_max":735.1875,"ha":784,"o":"m 103 0 q 103 694 103 173 q 241 694 137 694 q 241 97 241 545 q 505 97 307 97 q 505 694 505 246 q 644 694 539 694 q 644 97 644 545 q 735 97 667 97 q 735 -193 735 24 q 623 -193 706 -193 q 602 0 618 -146 q 103 0 477 0 "},"Л":{"x_min":20.34375,"x_max":770.46875,"ha":791,"o":"m 393 826 q 398 826 396 826 q 632 0 402 813 q 770 0 736 0 q 485 972 557 729 q 305 972 351 972 q 20 0 92 242 q 160 0 124 0 q 393 826 375 759 "},"w":{"x_min":20.34375,"x_max":965.796875,"ha":986,"o":"m 576 694 q 687 271 603 588 q 693 238 691 255 q 698 210 695 222 q 702 180 701 193 q 708 180 705 180 q 710 210 708 193 q 721 271 713 237 q 832 694 759 412 q 965 694 866 694 q 785 0 919 520 q 632 0 746 0 q 514 438 602 109 q 507 466 510 450 q 501 499 504 482 q 496 534 499 515 q 489 534 493 534 q 484 499 486 515 q 478 466 481 482 q 472 438 474 450 q 354 0 432 291 q 200 0 316 0 q 20 694 155 173 q 153 694 54 694 q 264 271 180 588 q 269 238 268 255 q 275 210 272 222 q 278 180 276 193 q 283 180 279 180 q 286 210 283 193 q 291 238 288 222 q 298 271 294 255 q 409 694 335 412 q 576 694 451 694 "},"$":{"x_min":40.6875,"x_max":644.3125,"ha":686,"o":"m 263 -9 q 168 8 210 -4 q 99 32 126 18 q 40 62 65 47 q 89 146 56 90 q 103 146 92 146 q 160 113 127 127 q 225 93 187 103 q 310 82 264 82 q 455 130 405 82 q 505 249 505 176 q 472 340 505 305 q 389 402 439 377 q 279 454 339 430 q 170 512 221 478 q 88 596 120 546 q 54 721 54 645 q 108 885 54 817 q 263 976 162 952 q 263 1068 263 1007 q 408 1068 298 1068 q 408 983 408 1048 q 501 965 461 978 q 569 941 541 953 q 623 910 600 926 q 575 826 607 881 q 561 826 571 826 q 511 857 539 843 q 450 878 485 868 q 366 888 413 888 q 295 876 328 888 q 240 843 264 864 q 206 794 218 822 q 192 736 192 766 q 226 645 192 680 q 309 581 260 610 q 419 531 359 556 q 527 472 477 507 q 611 389 577 439 q 644 264 644 340 q 584 84 644 155 q 408 -6 524 12 q 408 -97 408 -36 q 263 -97 371 -97 q 263 -9 263 -75 "},"\\":{"x_min":0,"x_max":569.703125,"ha":568,"o":"m 569 0 q 430 0 534 0 q 0 972 322 242 q 138 972 35 972 q 569 0 246 729 "},"о":{"x_min":69.171875,"x_max":667.375,"ha":735,"o":"m 667 347 q 645 188 667 255 q 584 74 623 120 q 491 8 545 31 q 367 -13 436 -13 q 150 75 231 -13 q 69 347 69 165 q 150 618 69 529 q 367 708 231 708 q 491 686 436 708 q 584 618 545 663 q 645 505 623 573 q 667 347 667 439 m 527 347 q 515 470 527 419 q 480 552 503 520 q 430 596 459 583 q 367 611 401 611 q 305 596 335 611 q 253 552 276 583 q 221 470 233 520 q 208 347 208 419 q 221 223 208 274 q 253 141 233 173 q 305 97 276 111 q 367 82 335 82 q 430 97 401 82 q 480 141 459 111 q 515 223 503 173 q 527 347 527 274 "},"Д":{"x_min":13.5625,"x_max":807.078125,"ha":860,"o":"m 714 972 q 714 97 714 754 q 805 97 737 97 q 807 0 807 46 q 674 0 739 0 q 153 0 543 0 q 13 4 20 0 q 13 97 13 81 q 82 97 31 97 q 118 157 103 120 q 143 234 131 187 q 160 347 155 280 q 193 972 170 556 q 714 972 324 972 m 576 97 q 576 874 576 291 q 326 874 514 874 q 298 347 320 743 q 282 234 294 280 q 256 157 271 187 q 222 97 241 120 q 576 97 340 97 "},"ъ":{"x_min":13.5625,"x_max":736.546875,"ha":770,"o":"m 458 458 q 670 398 603 458 q 736 229 736 339 q 670 59 736 119 q 458 0 603 0 q 193 0 370 0 q 193 596 193 149 q 13 596 149 596 q 13 694 13 621 q 333 694 93 694 q 333 458 333 634 q 458 458 364 458 m 333 360 q 333 97 333 295 q 458 97 364 97 q 564 128 531 97 q 596 229 596 161 q 564 329 596 297 q 458 360 531 360 q 333 360 416 360 "},"-":{"x_min":40.6875,"x_max":568.34375,"ha":610,"o":"m 40 402 q 40 514 40 430 q 568 514 172 514 q 568 402 568 485 q 40 402 436 402 "},"ѕ":{"x_min":47.46875,"x_max":588.703125,"ha":639,"o":"m 303 -13 q 192 -2 241 -13 q 112 23 145 8 q 47 62 74 40 q 96 146 63 90 q 109 146 99 146 q 158 113 130 127 q 215 93 181 103 q 290 82 248 82 q 415 111 379 82 q 450 180 450 138 q 421 241 450 218 q 348 280 393 264 q 255 311 305 297 q 161 351 206 328 q 89 411 118 374 q 61 507 61 447 q 124 652 61 595 q 325 708 188 708 q 427 697 383 708 q 504 670 472 685 q 568 632 539 652 q 519 548 552 603 q 505 548 515 548 q 458 579 482 565 q 405 600 436 590 q 339 611 375 611 q 233 584 265 611 q 199 520 199 557 q 227 459 199 482 q 299 420 256 438 q 394 389 344 404 q 486 349 444 373 q 560 290 531 326 q 588 193 588 252 q 572 108 588 147 q 522 43 557 70 q 434 1 486 16 q 303 -13 379 -13 "},"Q":{"x_min":75.96875,"x_max":758.25,"ha":833,"o":"m 756 485 q 736 278 756 366 q 680 130 716 189 q 595 36 645 70 q 485 -6 545 4 q 347 -6 396 -27 q 237 36 287 2 q 151 130 187 70 q 96 278 116 189 q 75 485 75 366 q 101 716 75 621 q 170 870 126 811 q 278 959 215 931 q 416 986 341 986 q 554 959 491 986 q 661 870 618 931 q 732 716 706 811 q 756 485 756 621 m 215 485 q 231 294 215 370 q 276 169 248 217 q 341 103 305 123 q 416 82 378 82 q 491 103 455 82 q 556 169 527 123 q 600 294 584 217 q 618 485 618 370 q 600 678 618 599 q 556 801 584 755 q 491 869 527 849 q 416 888 455 888 q 341 869 378 888 q 276 801 305 849 q 231 678 248 755 q 215 485 215 599 m 413 73 l 758 73 l 758 -14 l 413 -14 l 413 73 m 393 978 l 393 978 l 393 978 l 393 978 l 393 978 "},"Ш":{"x_min":124.796875,"x_max":1152.984375,"ha":1278,"o":"m 1152 0 q 124 0 895 0 q 124 972 124 242 q 264 972 160 972 q 264 97 264 754 q 569 97 340 97 q 569 972 569 316 q 708 972 603 972 q 708 97 708 754 q 1014 97 785 97 q 1014 972 1014 316 q 1152 972 1048 972 q 1152 0 1152 729 "},"M":{"x_min":124.796875,"x_max":1041.75,"ha":1167,"o":"m 556 382 q 565 362 561 373 q 573 339 571 349 q 580 311 577 325 q 585 311 581 311 q 592 339 588 325 q 600 362 595 349 q 611 382 604 373 q 903 972 708 579 q 1041 972 937 972 q 1041 0 1041 729 q 903 0 1006 0 q 903 583 903 146 q 903 618 903 598 q 906 657 904 638 q 908 701 907 679 q 903 701 906 701 q 889 657 897 679 q 876 618 883 638 q 861 583 868 598 q 652 173 792 446 q 514 173 618 173 q 305 583 461 276 q 290 618 297 598 q 276 657 283 638 q 264 701 269 679 q 257 701 261 701 q 261 657 259 679 q 263 618 263 638 q 264 583 264 598 q 264 0 264 389 q 124 0 229 0 q 124 972 124 242 q 264 972 160 972 q 556 382 336 824 "},"ј":{"x_min":-124.796875,"x_max":256.375,"ha":347,"o":"m 256 888 q 233 828 256 853 q 173 805 210 805 q 113 828 137 805 q 90 888 90 853 q 113 948 90 925 q 173 972 137 972 q 233 948 210 972 q 256 888 256 925 m 0 -180 q 75 -149 47 -180 q 104 -55 104 -118 q 104 694 104 193 q 242 694 138 694 q 242 -55 242 507 q 226 -146 242 -105 q 180 -217 211 -187 q 107 -261 150 -245 q 13 -278 65 -278 q -43 -271 -17 -278 q -88 -256 -69 -265 q -124 -236 -109 -248 q -90 -146 -113 -206 q -75 -146 -86 -146 q -54 -164 -66 -157 q -29 -176 -43 -170 q 0 -180 -14 -180 "},"C":{"x_min":75.96875,"x_max":680.9375,"ha":715,"o":"m 75 485 q 101 716 75 621 q 172 870 126 811 q 282 959 218 931 q 423 986 345 986 q 526 973 481 986 q 602 946 571 963 q 667 910 638 930 q 618 826 651 881 q 603 826 614 826 q 557 857 581 843 q 504 878 534 868 q 438 888 473 888 q 349 869 390 888 q 279 801 309 849 q 233 678 249 755 q 215 485 215 599 q 233 294 215 370 q 280 169 249 217 q 355 103 311 123 q 451 82 398 82 q 518 93 486 82 q 571 113 548 103 q 618 146 595 127 q 632 146 622 146 q 680 62 644 124 q 617 23 652 40 q 539 -2 584 8 q 438 -13 496 -13 q 287 13 354 -13 q 173 100 221 40 q 101 255 126 161 q 75 485 75 349 "},"!":{"x_min":118.015625,"x_max":284.859375,"ha":402,"o":"m 118 972 q 284 972 160 972 q 256 249 278 792 q 146 249 229 249 q 118 972 138 430 m 118 69 q 141 128 118 105 q 200 153 165 153 q 261 128 237 153 q 284 69 284 105 q 261 9 284 33 q 200 -13 237 -13 q 141 9 165 -13 q 118 69 118 33 "},"Й":{"x_min":124.796875,"x_max":750.109375,"ha":875,"o":"m 264 0 q 124 0 229 0 q 124 972 124 242 q 264 972 160 972 q 264 354 264 817 q 263 317 264 339 q 261 279 263 297 q 257 236 259 256 q 264 236 260 236 q 276 279 269 256 q 290 317 283 297 q 305 354 297 339 q 611 972 406 560 q 750 972 645 972 q 750 0 750 729 q 611 0 714 0 q 611 618 611 154 q 611 653 611 633 q 614 693 613 674 q 617 736 615 713 q 611 736 614 736 q 598 693 604 713 q 584 653 591 674 q 569 618 576 633 q 264 0 467 412 m 438 876 q 500 899 478 876 q 520 973 520 921 q 645 973 562 973 q 594 842 645 891 q 438 793 541 793 q 280 842 333 793 q 229 973 229 891 q 354 973 271 973 q 374 899 354 921 q 438 876 396 876 "},"{":{"x_min":54.265625,"x_max":436.78125,"ha":450,"o":"m 54 438 q 132 466 107 438 q 158 569 158 496 q 158 819 158 652 q 218 959 158 903 q 387 1014 278 1014 q 436 1014 404 1014 q 436 916 436 990 q 387 916 424 916 q 321 891 345 916 q 297 819 297 866 q 297 569 297 736 q 279 470 297 507 q 241 416 263 435 q 185 389 217 394 q 241 360 217 382 q 279 306 263 341 q 297 208 297 271 q 297 -42 297 124 q 321 -113 297 -89 q 387 -138 345 -138 q 436 -138 404 -138 q 436 -236 436 -162 q 387 -236 424 -236 q 218 -180 278 -236 q 158 -42 158 -124 q 158 208 158 42 q 132 310 158 282 q 54 340 107 340 q 54 438 54 373 "},"X":{"x_min":20.34375,"x_max":714.84375,"ha":735,"o":"m 340 659 q 349 640 344 649 q 356 619 354 629 q 364 596 360 609 q 370 596 367 596 q 379 619 374 609 q 386 640 382 629 q 396 659 390 649 q 556 972 448 763 q 708 972 594 972 q 458 493 645 851 q 714 0 522 370 q 562 0 676 0 q 396 326 520 81 q 386 345 390 335 q 379 366 382 356 q 370 389 374 378 q 364 389 368 389 q 356 366 360 378 q 340 326 349 345 q 173 0 284 217 q 20 0 135 0 q 278 493 85 123 q 27 972 215 613 q 180 972 66 972 q 340 659 221 893 "},"#":{"x_min":27.125,"x_max":888.46875,"ha":916,"o":"m 415 721 q 610 721 463 721 q 667 972 623 785 q 805 972 701 972 q 748 721 790 910 q 888 721 784 721 q 888 625 888 698 q 727 625 847 625 q 661 347 710 556 q 805 347 698 347 q 805 249 805 322 q 640 249 763 249 q 583 0 626 187 q 444 0 548 0 q 501 249 458 62 q 306 249 453 249 q 249 0 293 187 q 111 0 215 0 q 168 249 124 62 q 27 249 132 249 q 27 347 27 274 q 189 347 67 347 q 253 625 206 416 q 111 625 218 625 q 111 721 111 649 q 276 721 151 721 q 333 972 290 785 q 472 972 367 972 q 415 721 458 910 m 329 347 q 523 347 378 347 q 587 625 539 416 q 393 625 538 625 q 329 347 377 556 "},"Б":{"x_min":124.796875,"x_max":729.765625,"ha":791,"o":"m 389 583 q 645 504 561 583 q 729 291 729 425 q 645 77 729 155 q 389 0 561 0 q 124 0 301 0 q 124 972 124 242 q 667 972 260 972 q 667 874 667 948 q 264 874 565 874 q 264 583 264 801 q 389 583 295 583 m 264 485 q 264 97 264 389 q 389 97 295 97 q 539 147 488 97 q 590 291 590 196 q 539 436 590 386 q 389 485 488 485 q 264 485 347 485 "},"г":{"x_min":103.09375,"x_max":561.5625,"ha":575,"o":"m 561 596 q 241 596 481 596 q 241 0 241 447 q 103 0 207 0 q 103 694 103 173 q 561 694 217 694 q 561 596 561 670 "},"Џ":{"x_min":124.796875,"x_max":750.109375,"ha":875,"o":"m 124 0 q 124 972 124 242 q 264 972 160 972 q 264 97 264 754 q 611 97 351 97 q 611 972 611 316 q 750 972 645 972 q 750 0 750 729 q 507 0 689 0 q 493 -208 503 -51 q 382 -208 465 -208 q 367 0 378 -155 q 124 0 307 0 "},")":{"x_min":0,"x_max":320.125,"ha":395,"o":"m 320 389 q 302 212 320 299 q 252 43 286 124 q 169 -109 219 -37 q 55 -242 120 -183 q 0 -187 36 -225 q 131 71 82 -66 q 180 389 180 211 q 131 705 180 567 q 0 965 82 845 q 55 1021 18 983 q 169 888 120 961 q 252 733 219 815 q 302 565 286 652 q 320 389 320 477 "},"э":{"x_min":27.125,"x_max":562.921875,"ha":631,"o":"m 256 611 q 196 600 225 611 q 149 579 169 590 q 104 548 123 565 q 90 548 99 548 q 42 632 78 569 q 104 670 67 652 q 176 697 134 685 q 271 708 218 708 q 389 686 336 708 q 481 618 443 663 q 541 505 520 573 q 562 347 562 439 q 480 75 562 165 q 256 -13 397 -13 q 162 -2 204 -13 q 90 23 120 8 q 27 62 54 40 q 75 146 43 90 q 90 146 80 146 q 134 113 109 127 q 183 93 155 103 q 242 82 211 82 q 367 134 320 82 q 421 305 416 185 q 172 305 339 305 q 172 402 172 329 q 421 402 234 402 q 367 564 411 518 q 256 611 324 611 "},"х":{"x_min":20.34375,"x_max":618.546875,"ha":639,"o":"m 316 256 q 309 237 313 246 q 291 200 302 219 q 173 0 252 134 q 20 0 135 0 q 236 354 74 88 q 27 694 184 439 q 180 694 66 694 q 291 500 208 645 q 301 481 295 491 q 307 463 305 472 q 316 444 311 454 q 322 444 318 444 q 330 463 326 454 q 337 481 333 472 q 347 500 341 491 q 458 694 383 564 q 611 694 496 694 q 402 354 558 609 q 618 0 457 265 q 465 0 580 0 q 347 200 435 50 q 329 237 336 219 q 322 256 325 246 q 316 256 320 256 "},"}":{"x_min":13.5625,"x_max":396.078125,"ha":450,"o":"m 396 340 q 317 310 343 340 q 291 208 291 282 q 291 -42 291 124 q 231 -180 291 -124 q 62 -236 172 -236 q 13 -236 46 -236 q 13 -138 13 -211 q 62 -138 25 -138 q 128 -113 104 -138 q 153 -42 153 -89 q 153 208 153 42 q 169 306 153 271 q 208 360 187 341 q 264 389 233 382 q 208 416 233 394 q 169 470 187 435 q 153 569 153 507 q 153 819 153 652 q 128 891 153 866 q 62 916 104 916 q 13 916 46 916 q 13 1014 13 941 q 62 1014 25 1014 q 231 959 172 1014 q 291 819 291 903 q 291 569 291 736 q 317 466 291 496 q 396 438 343 438 q 396 340 396 405 "},"ш":{"x_min":103.09375,"x_max":991.5625,"ha":1096,"o":"m 991 0 q 103 0 769 0 q 103 694 103 173 q 241 694 137 694 q 241 97 241 545 q 477 97 301 97 q 477 694 477 246 q 617 694 512 694 q 617 97 617 545 q 853 97 675 97 q 853 694 853 246 q 991 694 887 694 q 991 0 991 520 "},"Я":{"x_min":27.125,"x_max":667.375,"ha":791,"o":"m 438 374 q 358 345 390 374 q 311 271 326 317 q 271 124 298 222 q 212 21 250 56 q 111 -13 173 -13 q 48 -6 71 -13 q 27 0 36 -4 q 42 90 32 29 q 48 90 43 90 q 56 85 51 88 q 75 82 67 82 q 107 99 92 82 q 131 146 123 113 q 173 291 146 193 q 202 351 184 328 q 238 387 219 373 q 284 409 259 402 q 208 436 245 415 q 141 491 170 458 q 94 572 112 526 q 75 674 75 619 q 161 893 75 815 q 423 972 245 972 q 667 972 504 972 q 667 0 667 729 q 527 0 632 0 q 527 374 527 93 q 438 374 504 374 m 527 472 q 527 874 527 572 q 423 874 501 874 q 215 674 215 874 q 423 472 215 472 q 527 472 458 472 "},"Ч":{"x_min":82.75,"x_max":708.0625,"ha":833,"o":"m 569 972 q 708 972 603 972 q 708 0 708 729 q 569 0 674 0 q 569 382 569 94 q 514 370 543 377 q 451 363 486 366 q 374 360 416 360 q 252 381 306 360 q 161 436 198 401 q 103 522 123 472 q 82 632 82 572 q 82 972 82 746 q 222 972 118 972 q 222 632 222 887 q 271 505 222 553 q 409 458 321 458 q 472 461 443 458 q 523 467 501 463 q 569 478 548 473 q 569 972 569 642 "},"a":{"x_min":62.390625,"x_max":611.75,"ha":708,"o":"m 472 444 q 432 569 472 527 q 326 611 394 611 q 267 600 294 611 q 218 579 238 590 q 173 548 192 565 q 160 548 169 548 q 111 632 147 569 q 173 670 137 652 q 245 697 204 685 q 340 708 287 708 q 450 689 400 708 q 534 633 500 670 q 591 550 571 598 q 611 444 611 501 q 611 0 611 295 q 514 0 587 0 q 500 82 510 20 q 493 82 497 82 q 444 35 473 55 q 382 1 419 14 q 291 -13 344 -13 q 122 43 181 -13 q 62 200 62 101 q 78 286 62 248 q 130 351 96 325 q 223 394 166 379 q 360 409 280 409 q 472 409 398 409 q 472 444 472 417 m 472 311 q 360 311 444 311 q 240 280 278 311 q 200 200 200 248 q 233 119 200 149 q 326 90 264 90 q 385 103 358 90 q 430 131 411 116 q 472 173 454 150 q 472 311 472 219 "},"=":{"x_min":47.46875,"x_max":602.265625,"ha":652,"o":"m 47 278 q 47 389 47 305 q 602 389 185 389 q 602 278 602 360 q 47 278 463 278 m 47 527 q 47 638 47 556 q 602 638 185 638 q 602 527 602 611 q 47 527 463 527 "},"N":{"x_min":124.796875,"x_max":750.109375,"ha":875,"o":"m 305 618 q 291 653 298 633 q 278 693 284 674 q 264 736 271 713 q 257 736 261 736 q 261 693 259 713 q 263 653 263 674 q 264 618 264 633 q 264 0 264 412 q 124 0 229 0 q 124 972 124 242 q 278 972 162 972 q 569 354 351 817 q 583 317 576 339 q 596 279 590 297 q 611 236 603 256 q 617 236 613 236 q 614 279 615 256 q 611 317 613 297 q 611 354 611 339 q 611 972 611 560 q 750 972 645 972 q 750 0 750 729 q 596 0 712 0 q 305 618 524 154 "},"Ћ":{"x_min":0,"x_max":819.296875,"ha":902,"o":"m 333 0 q 193 0 298 0 q 193 874 193 218 q 0 874 146 874 q 0 972 0 899 q 583 972 146 972 q 583 874 583 948 q 333 874 520 874 q 333 603 333 807 q 389 614 358 609 q 450 621 415 618 q 527 625 485 625 q 649 604 595 625 q 741 548 704 584 q 798 463 778 514 q 819 354 819 413 q 819 0 819 236 q 680 0 785 0 q 680 354 680 88 q 630 480 680 432 q 493 527 581 527 q 430 524 458 527 q 379 516 401 520 q 333 507 354 511 q 333 0 333 337 "},"д":{"x_min":6.78125,"x_max":729.765625,"ha":777,"o":"m 638 694 q 638 97 638 545 q 729 97 661 97 q 729 -193 729 24 q 618 -193 701 -193 q 596 0 613 -146 q 146 0 484 0 q 124 -193 141 -48 q 6 -193 94 -193 q 6 97 6 -122 q 75 97 24 97 q 112 151 97 119 q 138 217 126 179 q 153 305 150 255 q 173 694 160 435 q 638 694 290 694 m 500 97 q 500 596 500 222 q 305 596 451 596 q 291 305 302 524 q 276 217 288 255 q 250 151 265 179 q 215 97 236 119 q 500 97 310 97 "},"2":{"x_min":40.6875,"x_max":630.75,"ha":695,"o":"m 630 721 q 596 592 630 652 q 514 478 564 533 q 405 378 463 425 q 295 283 345 330 q 212 191 245 237 q 179 97 179 146 q 630 97 329 97 q 630 0 630 73 q 40 0 482 0 q 40 97 40 24 q 73 223 40 166 q 157 333 107 282 q 265 431 207 385 q 375 526 325 478 q 458 625 424 575 q 492 736 492 676 q 442 843 492 798 q 303 888 393 888 q 221 878 256 888 q 160 857 184 868 q 109 826 130 843 q 96 826 105 826 q 47 910 84 847 q 115 946 74 930 q 199 973 149 963 q 318 986 249 986 q 451 967 393 986 q 549 911 510 946 q 610 827 588 876 q 630 721 630 778 "},"М":{"x_min":124.796875,"x_max":1041.75,"ha":1167,"o":"m 556 382 q 565 362 561 373 q 573 339 571 349 q 580 311 577 325 q 585 311 581 311 q 592 339 588 325 q 600 362 595 349 q 611 382 604 373 q 903 972 708 579 q 1041 972 937 972 q 1041 0 1041 729 q 903 0 1006 0 q 903 583 903 146 q 903 618 903 598 q 906 657 904 638 q 908 701 907 679 q 903 701 906 701 q 889 657 897 679 q 876 618 883 638 q 861 583 868 598 q 652 173 792 446 q 514 173 618 173 q 305 583 461 276 q 290 618 297 598 q 276 657 283 638 q 264 701 269 679 q 257 701 261 701 q 261 657 259 679 q 263 618 263 638 q 264 583 264 598 q 264 0 264 389 q 124 0 229 0 q 124 972 124 242 q 264 972 160 972 q 556 382 336 824 "},"Z":{"x_min":33.90625,"x_max":637.53125,"ha":673,"o":"m 33 0 q 33 104 33 25 q 463 874 141 297 q 33 874 356 874 q 33 972 33 899 q 630 972 183 972 q 630 868 630 946 q 199 97 523 675 q 637 97 309 97 q 637 0 637 73 q 33 0 486 0 "},"ь":{"x_min":103.09375,"x_max":644.3125,"ha":680,"o":"m 366 458 q 579 398 512 458 q 644 229 644 339 q 579 59 644 119 q 366 0 512 0 q 103 0 279 0 q 103 694 103 173 q 241 694 137 694 q 241 458 241 634 q 366 458 272 458 m 241 360 q 241 97 241 295 q 366 97 272 97 q 473 128 440 97 q 505 229 505 161 q 473 329 505 297 q 366 360 440 360 q 241 360 325 360 "},"u":{"x_min":103.09375,"x_max":657.875,"ha":764,"o":"m 373 90 q 431 103 405 90 q 477 131 458 116 q 519 173 501 150 q 519 694 519 347 q 657 694 554 694 q 657 0 657 520 q 561 0 633 0 q 546 82 557 20 q 539 82 545 82 q 492 35 520 55 q 428 1 466 14 q 339 -13 392 -13 q 242 4 286 -13 q 168 51 199 20 q 120 126 137 82 q 103 222 103 169 q 103 694 103 379 q 241 694 137 694 q 241 222 241 576 q 278 127 241 164 q 373 90 314 90 "},"k":{"x_min":103.09375,"x_max":651.09375,"ha":666,"o":"m 241 972 q 241 374 241 823 q 477 694 301 454 q 637 694 518 694 q 387 360 575 611 q 651 0 453 271 q 492 0 611 0 q 241 347 428 86 q 241 0 241 260 q 103 0 207 0 q 103 930 103 233 q 145 972 112 941 q 241 972 168 972 "},"З":{"x_min":27.125,"x_max":652.453125,"ha":722,"o":"m 298 888 q 223 878 256 888 q 166 857 189 868 q 118 826 138 843 q 104 826 113 826 q 55 910 92 847 q 120 946 82 930 q 200 973 153 963 q 311 986 249 986 q 450 967 390 986 q 550 912 510 946 q 611 832 590 878 q 632 736 632 788 q 603 625 632 668 q 543 557 576 581 q 458 514 507 527 q 556 467 512 500 q 591 435 573 454 q 622 390 609 416 q 644 332 636 364 q 652 256 652 298 q 632 147 652 196 q 567 61 611 97 q 457 6 523 25 q 298 -13 390 -13 q 180 -2 230 -13 q 96 23 128 8 q 27 62 55 40 q 75 146 43 90 q 90 146 80 146 q 139 113 111 127 q 200 93 165 103 q 284 82 237 82 q 459 132 405 82 q 514 271 514 181 q 463 409 514 359 q 311 458 412 458 q 187 458 271 458 q 187 556 187 482 q 311 556 218 556 q 444 602 396 556 q 493 721 493 648 q 443 842 493 796 q 298 888 393 888 "},"Ў":{"x_min":13.5625,"x_max":731.125,"ha":743,"o":"m 377 1110 q 439 1133 417 1110 q 459 1208 459 1155 q 584 1208 501 1208 q 533 1077 584 1124 q 377 1028 480 1028 q 219 1077 272 1028 q 168 1208 168 1124 q 293 1208 210 1208 q 313 1133 293 1155 q 377 1110 335 1110 m 362 465 q 373 434 367 451 q 383 400 379 416 q 393 360 386 386 q 398 360 394 360 q 406 400 401 381 q 416 432 411 415 q 424 465 420 451 q 591 972 480 634 q 731 972 626 972 q 473 173 666 773 q 438 99 461 134 q 383 37 415 63 q 313 -5 352 10 q 230 -20 275 -20 q 169 -14 195 -20 q 123 0 142 -8 q 84 20 101 8 q 119 111 96 51 q 132 111 123 111 q 157 93 142 100 q 183 81 168 85 q 217 75 196 75 q 290 104 257 75 q 335 173 321 131 q 362 256 344 200 q 299 256 347 256 q 13 972 227 435 q 160 972 50 972 q 362 465 210 845 "},"€":{"x_min":13.5625,"x_max":721.625,"ha":757,"o":"m 35 611 q 123 611 56 611 q 164 782 134 710 q 236 899 192 854 q 337 965 280 944 q 465 986 396 986 q 568 973 523 986 q 644 946 613 963 q 708 910 680 930 q 659 826 691 881 q 645 826 656 826 q 598 857 623 843 q 545 878 576 868 q 478 888 515 888 q 402 874 439 888 q 339 826 367 859 q 291 741 310 794 q 263 611 271 689 q 568 611 364 611 q 554 527 564 590 q 256 527 480 527 q 256 444 256 507 q 548 444 329 444 q 534 360 545 423 q 263 360 466 360 q 293 229 272 283 q 341 142 311 176 q 411 97 371 111 q 493 82 448 82 q 560 93 529 82 q 613 113 590 103 q 659 146 637 127 q 674 146 664 146 q 721 62 686 124 q 657 23 694 40 q 581 -2 626 8 q 478 -13 537 -13 q 345 6 405 -13 q 240 71 286 27 q 164 188 193 118 q 123 360 134 259 q 13 360 86 360 q 27 444 17 382 q 118 444 50 444 q 118 527 118 465 q 20 527 93 527 q 35 611 24 548 "},"в":{"x_min":103.09375,"x_max":644.3125,"ha":708,"o":"m 484 360 q 564 332 527 352 q 619 279 594 311 q 644 187 644 245 q 628 113 644 149 q 577 54 613 80 q 492 14 543 29 q 366 0 439 0 q 103 0 279 0 q 103 694 103 173 q 366 694 168 694 q 476 679 428 694 q 553 640 522 664 q 600 583 584 615 q 617 514 617 550 q 595 436 617 466 q 550 390 575 406 q 484 360 520 370 m 241 596 q 241 402 241 548 q 366 402 272 402 q 448 430 419 402 q 477 500 477 458 q 448 569 477 541 q 366 596 419 596 q 241 596 325 596 m 241 305 q 241 97 241 253 q 366 97 272 97 q 473 126 440 97 q 505 200 505 154 q 473 276 505 248 q 366 305 440 305 q 241 305 325 305 "},"С":{"x_min":75.96875,"x_max":680.9375,"ha":715,"o":"m 75 485 q 101 716 75 621 q 172 870 126 811 q 282 959 218 931 q 423 986 345 986 q 526 973 481 986 q 602 946 571 963 q 667 910 638 930 q 618 826 651 881 q 603 826 614 826 q 557 857 581 843 q 504 878 534 868 q 438 888 473 888 q 349 869 390 888 q 279 801 309 849 q 233 678 249 755 q 215 485 215 599 q 233 294 215 370 q 280 169 249 217 q 355 103 311 123 q 451 82 398 82 q 518 93 486 82 q 571 113 548 103 q 618 146 595 127 q 632 146 622 146 q 680 62 644 124 q 617 23 652 40 q 539 -2 584 8 q 438 -13 496 -13 q 287 13 354 -13 q 173 100 221 40 q 101 255 126 161 q 75 485 75 349 "},"њ":{"x_min":103.09375,"x_max":1033.609375,"ha":1069,"o":"m 755 430 q 967 371 902 430 q 1033 215 1033 313 q 967 58 1033 116 q 755 0 902 0 q 492 0 667 0 q 492 333 492 82 q 241 333 428 333 q 241 0 241 249 q 103 0 207 0 q 103 694 103 173 q 241 694 137 694 q 241 430 241 628 q 492 430 303 430 q 492 694 492 496 q 630 694 526 694 q 630 430 630 628 q 755 430 661 430 m 630 333 q 630 97 630 274 q 755 97 661 97 q 861 127 828 97 q 893 215 893 157 q 861 303 893 274 q 755 333 828 333 q 630 333 713 333 "},"s":{"x_min":47.46875,"x_max":588.703125,"ha":639,"o":"m 303 -13 q 192 -2 241 -13 q 112 23 145 8 q 47 62 74 40 q 96 146 63 90 q 109 146 99 146 q 158 113 130 127 q 215 93 181 103 q 290 82 248 82 q 415 111 379 82 q 450 180 450 138 q 421 241 450 218 q 348 280 393 264 q 255 311 305 297 q 161 351 206 328 q 89 411 118 374 q 61 507 61 447 q 124 652 61 595 q 325 708 188 708 q 427 697 383 708 q 504 670 472 685 q 568 632 539 652 q 519 548 552 603 q 505 548 515 548 q 458 579 482 565 q 405 600 436 590 q 339 611 375 611 q 233 584 265 611 q 199 520 199 557 q 227 459 199 482 q 299 420 256 438 q 394 389 344 404 q 486 349 444 373 q 560 290 531 326 q 588 193 588 252 q 572 108 588 147 q 522 43 557 70 q 434 1 486 16 q 303 -13 379 -13 "},"B":{"x_min":124.796875,"x_max":729.765625,"ha":798,"o":"m 534 514 q 632 469 588 501 q 667 436 649 455 q 698 393 685 417 q 720 336 712 367 q 729 264 729 303 q 709 155 729 204 q 647 71 689 107 q 541 18 604 37 q 389 0 477 0 q 124 0 301 0 q 124 972 124 242 q 389 972 191 972 q 522 953 463 972 q 617 903 579 934 q 675 826 655 870 q 694 729 694 779 q 670 619 694 660 q 614 554 644 577 q 534 514 577 526 m 264 556 q 389 556 295 556 q 511 598 467 556 q 556 714 556 641 q 511 831 556 789 q 389 874 467 874 q 264 874 347 874 q 264 556 264 794 m 264 458 q 264 97 264 367 q 389 97 295 97 q 541 142 493 97 q 590 278 590 188 q 541 412 590 366 q 389 458 493 458 q 264 458 347 458 "},"В":{"x_min":124.796875,"x_max":729.765625,"ha":798,"o":"m 534 514 q 632 469 588 501 q 667 436 649 455 q 698 393 685 417 q 720 336 712 367 q 729 264 729 303 q 709 155 729 204 q 647 71 689 107 q 541 18 604 37 q 389 0 477 0 q 124 0 301 0 q 124 972 124 242 q 389 972 191 972 q 522 953 463 972 q 617 903 579 934 q 675 826 655 870 q 694 729 694 779 q 670 619 694 660 q 614 554 644 577 q 534 514 577 526 m 264 556 q 389 556 295 556 q 511 598 467 556 q 556 714 556 641 q 511 831 556 789 q 389 874 467 874 q 264 874 347 874 q 264 556 264 794 m 264 458 q 264 97 264 367 q 389 97 295 97 q 541 142 493 97 q 590 278 590 188 q 541 412 590 366 q 389 458 493 458 q 264 458 347 458 "},"І":{"x_min":21.703125,"x_max":375.734375,"ha":388,"o":"m 124 972 q 264 972 160 972 q 264 0 264 729 q 124 0 229 0 q 124 972 124 242 m 21 134 l 375 134 l 375 0 l 21 0 l 21 134 m 21 972 l 375 972 l 375 838 l 21 838 l 21 972 "},"?":{"x_min":0,"x_max":583.265625,"ha":639,"o":"m 168 69 q 191 128 168 105 q 250 153 215 153 q 310 128 287 153 q 335 69 335 105 q 310 9 335 33 q 250 -13 287 -13 q 191 9 215 -13 q 168 69 168 33 m 313 249 q 188 249 282 249 q 188 305 188 264 q 207 405 188 363 q 253 478 226 447 q 316 537 283 511 q 378 590 349 562 q 425 652 406 618 q 444 736 444 687 q 394 843 444 798 q 256 888 345 888 q 173 878 210 888 q 112 857 137 868 q 62 826 82 843 q 48 826 58 826 q 0 910 36 847 q 67 946 27 930 q 151 973 101 963 q 271 986 203 986 q 404 967 345 986 q 501 911 462 946 q 562 827 541 876 q 583 721 583 778 q 562 621 583 661 q 512 548 542 580 q 448 493 482 518 q 383 442 413 467 q 333 382 354 415 q 313 305 313 349 q 313 249 313 287 "},"H":{"x_min":124.796875,"x_max":750.109375,"ha":875,"o":"m 750 972 q 750 0 750 729 q 611 0 714 0 q 611 444 611 111 q 264 444 524 444 q 264 0 264 333 q 124 0 229 0 q 124 972 124 242 q 264 972 160 972 q 264 541 264 864 q 611 541 351 541 q 611 972 611 649 q 750 972 645 972 "},"c":{"x_min":69.171875,"x_max":603.625,"ha":631,"o":"m 374 611 q 307 596 339 611 q 255 552 278 583 q 221 470 233 520 q 208 347 208 419 q 256 142 208 200 q 389 82 305 82 q 447 93 420 82 q 496 113 474 103 q 541 146 520 127 q 556 146 546 146 q 603 62 568 124 q 541 23 577 40 q 469 -2 511 8 q 374 -13 427 -13 q 151 75 234 -13 q 69 347 69 165 q 90 505 69 439 q 150 618 111 573 q 242 686 188 663 q 360 708 295 708 q 455 697 413 708 q 527 670 497 685 q 590 632 564 652 q 541 548 573 603 q 527 548 538 548 q 481 579 507 565 q 434 600 461 590 q 374 611 406 611 "},"н":{"x_min":103.09375,"x_max":657.875,"ha":764,"o":"m 657 0 q 519 0 623 0 q 519 305 519 75 q 241 305 450 305 q 241 0 241 229 q 103 0 207 0 q 103 694 103 173 q 241 694 137 694 q 241 402 241 621 q 519 402 310 402 q 519 694 519 476 q 657 694 554 694 q 657 0 657 520 "},"(":{"x_min":75.96875,"x_max":396.078125,"ha":395,"o":"m 75 389 q 93 565 75 477 q 142 733 109 652 q 225 888 176 815 q 340 1021 275 961 q 396 965 359 1002 q 264 705 311 845 q 215 389 215 567 q 264 71 215 211 q 396 -187 311 -66 q 340 -242 377 -206 q 225 -109 275 -183 q 142 43 176 -37 q 93 212 109 124 q 75 389 75 299 "},"U":{"x_min":118.015625,"x_max":743.328125,"ha":860,"o":"m 430 82 q 557 137 510 82 q 603 305 603 189 q 603 972 603 527 q 743 972 638 972 q 743 305 743 805 q 661 67 743 149 q 430 -13 581 -13 q 198 67 279 -13 q 118 305 118 149 q 118 972 118 527 q 256 972 153 972 q 256 305 256 805 q 303 137 256 189 q 430 82 351 82 "},"F":{"x_min":124.796875,"x_max":667.375,"ha":695,"o":"m 124 0 q 124 972 124 242 q 667 972 260 972 q 667 874 667 948 q 264 874 565 874 q 264 541 264 792 q 583 541 343 541 q 583 444 583 516 q 264 444 503 444 q 264 0 264 333 q 124 0 229 0 "},"м":{"x_min":103.09375,"x_max":866.765625,"ha":971,"o":"m 415 118 q 283 367 382 180 q 253 432 265 401 q 241 465 246 450 q 236 465 240 465 q 238 431 237 448 q 241 400 240 416 q 241 367 241 383 q 241 0 241 245 q 103 0 207 0 q 103 694 103 173 q 248 694 139 694 q 457 305 301 596 q 474 269 467 287 q 481 249 478 259 q 486 249 484 249 q 495 269 489 259 q 512 305 501 287 q 720 694 581 435 q 866 694 756 694 q 866 0 866 520 q 728 0 831 0 q 728 367 728 92 q 728 400 728 383 q 731 431 729 416 q 733 465 732 448 q 728 465 731 465 q 714 432 720 450 q 701 400 708 417 q 686 367 694 383 q 554 118 641 284 q 415 118 519 118 "},"з":{"x_min":20.34375,"x_max":562.921875,"ha":624,"o":"m 278 708 q 398 693 348 708 q 482 652 450 679 q 533 594 516 628 q 548 520 548 560 q 526 443 548 473 q 474 394 503 412 q 402 360 443 371 q 481 330 446 352 q 537 275 512 310 q 562 180 562 240 q 546 103 562 138 q 496 42 530 67 q 406 1 461 14 q 278 -13 352 -13 q 166 -2 215 -13 q 85 23 118 8 q 20 62 48 40 q 69 146 36 90 q 82 146 73 146 q 131 113 104 127 q 188 93 155 103 q 264 82 222 82 q 387 112 352 82 q 423 193 423 141 q 390 276 423 246 q 284 305 358 305 q 166 305 245 305 q 166 402 166 329 q 284 402 196 402 q 378 431 347 402 q 409 507 409 459 q 377 583 409 554 q 264 611 343 611 q 198 600 227 611 q 147 579 168 590 q 104 548 122 565 q 90 548 99 548 q 42 632 78 569 q 103 670 66 652 q 176 697 132 685 q 278 708 219 708 "},":":{"x_min":54.265625,"x_max":221.09375,"ha":277,"o":"m 54 69 q 77 128 54 105 q 137 153 101 153 q 196 128 173 153 q 221 69 221 105 q 196 9 221 33 q 137 -13 173 -13 q 77 9 101 -13 q 54 69 54 33 m 54 625 q 77 685 54 660 q 137 708 101 708 q 196 685 173 708 q 221 625 221 660 q 196 565 221 588 q 137 541 173 541 q 77 565 101 541 q 54 625 54 588 "},"Ґ":{"x_min":124.796875,"x_max":667.375,"ha":680,"o":"m 667 1110 q 667 874 667 1052 q 264 874 565 874 q 264 0 264 656 q 124 0 229 0 q 124 972 124 242 q 541 972 229 972 q 556 1110 545 1006 q 667 1110 583 1110 "},"і":{"x_min":89.53125,"x_max":255.015625,"ha":347,"o":"m 241 694 q 241 0 241 520 q 103 0 207 0 q 103 694 103 173 q 241 694 137 694 m 255 888 q 231 828 255 853 q 172 805 208 805 q 112 828 135 805 q 89 888 89 853 q 112 948 89 925 q 172 972 135 972 q 231 948 208 972 q 255 888 255 925 "},"*":{"x_min":40.6875,"x_max":526.296875,"ha":568,"o":"m 89 888 q 234 805 124 868 q 234 972 234 847 q 332 972 259 972 q 332 805 332 930 q 477 888 368 826 q 526 805 489 868 q 381 721 489 785 q 526 638 416 701 q 477 556 514 618 q 332 638 440 576 q 332 472 332 596 q 234 472 307 472 q 234 638 234 514 q 89 556 198 618 q 40 638 77 576 q 185 721 77 659 q 40 805 149 743 q 89 888 52 826 "},"Ќ":{"x_min":124.796875,"x_max":777.25,"ha":813,"o":"m 562 1235 q 438 1028 531 1184 q 347 1028 415 1028 q 409 1235 363 1079 q 562 1235 447 1235 m 485 507 q 545 481 518 499 q 591 439 569 466 q 625 367 614 412 q 674 146 641 294 q 729 82 687 82 q 748 85 737 82 q 756 90 754 88 q 763 90 759 90 q 777 0 767 67 q 756 -6 769 -4 q 694 -13 733 -13 q 587 24 626 -13 q 534 124 548 62 q 485 347 518 199 q 444 423 474 394 q 360 451 413 451 q 264 451 328 451 q 264 0 264 339 q 124 0 229 0 q 124 972 124 242 q 264 972 160 972 q 264 548 264 866 q 347 548 284 548 q 438 576 405 548 q 478 652 470 604 q 514 847 491 717 q 565 948 524 910 q 674 986 604 986 q 709 984 694 986 q 736 979 725 982 q 756 972 748 975 q 743 881 752 942 q 736 881 741 881 q 728 884 733 883 q 718 887 724 885 q 708 888 713 888 q 672 873 687 888 q 652 826 657 858 q 618 632 641 760 q 590 565 611 590 q 543 527 568 539 q 485 507 518 512 "},"V":{"x_min":20.34375,"x_max":743.328125,"ha":764,"o":"m 385 146 q 389 179 386 162 q 394 211 392 193 q 402 242 398 227 q 603 972 469 485 q 743 972 638 972 q 472 0 675 729 q 291 0 427 0 q 20 972 223 242 q 160 972 55 972 q 360 242 210 789 q 367 211 364 227 q 373 179 370 193 q 379 146 377 162 q 385 146 381 146 "},"У":{"x_min":13.5625,"x_max":731.125,"ha":743,"o":"m 362 465 q 373 434 367 451 q 383 400 379 416 q 393 360 386 386 q 398 360 394 360 q 406 400 401 381 q 416 432 411 415 q 424 465 420 451 q 591 972 480 634 q 731 972 626 972 q 473 173 666 773 q 438 99 461 134 q 383 37 415 63 q 313 -5 352 10 q 230 -20 275 -20 q 169 -14 195 -20 q 123 0 142 -8 q 84 20 101 8 q 119 111 96 51 q 132 111 123 111 q 157 93 142 100 q 183 81 168 85 q 217 75 196 75 q 290 104 257 75 q 335 173 321 131 q 362 256 344 200 q 299 256 347 256 q 13 972 227 435 q 160 972 50 972 q 362 465 210 845 "},"0":{"x_min":75.96875,"x_max":729.765625,"ha":804,"o":"m 590 485 q 575 683 590 604 q 534 807 561 760 q 476 870 510 853 q 402 888 442 888 q 329 870 363 888 q 269 807 295 853 q 229 683 244 760 q 215 485 215 604 q 229 288 215 366 q 269 165 244 211 q 329 101 295 119 q 402 82 363 82 q 476 101 442 82 q 534 165 510 119 q 575 288 561 211 q 590 485 590 366 m 75 485 q 100 716 75 621 q 168 870 124 811 q 272 959 212 931 q 402 986 332 986 q 533 959 473 986 q 636 870 592 931 q 705 716 680 811 q 729 485 729 621 q 705 255 729 349 q 636 100 680 161 q 533 13 592 40 q 402 -13 473 -13 q 272 13 332 -13 q 168 100 212 40 q 100 255 124 161 q 75 485 75 349 "},"@":{"x_min":62.390625,"x_max":1228.9375,"ha":1291,"o":"m 763 562 q 728 599 747 583 q 687 626 710 615 q 638 638 664 638 q 584 626 610 638 q 539 585 560 614 q 511 515 522 560 q 500 409 500 472 q 511 303 500 347 q 539 231 522 259 q 584 192 560 206 q 638 180 610 180 q 687 189 664 180 q 728 211 710 199 q 763 242 747 225 q 763 562 763 349 m 632 -166 q 408 -122 512 -166 q 226 0 303 -77 q 105 184 150 77 q 62 416 62 291 q 107 648 62 541 q 229 832 151 755 q 413 956 306 911 q 645 999 520 999 q 877 956 770 999 q 1062 832 984 911 q 1184 648 1140 755 q 1228 416 1228 541 q 1209 267 1228 330 q 1155 160 1190 203 q 1077 97 1121 118 q 979 75 1030 75 q 891 88 926 75 q 832 113 855 99 q 792 153 808 130 q 785 153 789 153 q 736 113 762 130 q 679 88 712 99 q 603 75 645 75 q 507 96 552 75 q 430 157 462 116 q 379 261 398 198 q 360 409 360 324 q 379 558 360 496 q 430 660 398 621 q 507 722 462 702 q 603 743 552 743 q 682 728 648 743 q 739 697 714 713 q 785 652 765 678 q 792 652 786 652 q 805 729 794 671 q 903 729 830 729 q 903 193 903 595 q 921 180 911 185 q 940 170 929 174 q 965 166 950 166 q 1013 179 988 166 q 1056 221 1037 191 q 1090 298 1078 249 q 1104 416 1104 345 q 1068 615 1104 526 q 973 769 1034 705 q 828 868 912 832 q 645 903 744 903 q 463 868 546 903 q 317 769 379 832 q 222 615 256 705 q 187 416 187 526 q 222 217 187 306 q 317 63 256 127 q 463 -35 379 0 q 645 -69 546 -69 q 739 -59 698 -69 q 808 -39 778 -50 q 868 -6 842 -24 q 881 -6 872 -6 q 930 -90 893 -27 q 854 -128 899 -112 q 760 -155 816 -143 q 632 -166 705 -166 "},"i":{"x_min":89.53125,"x_max":255.015625,"ha":347,"o":"m 241 694 q 241 0 241 520 q 103 0 207 0 q 103 694 103 173 q 241 694 137 694 m 255 888 q 231 828 255 853 q 172 805 208 805 q 112 828 135 805 q 89 888 89 853 q 112 948 89 925 q 172 972 135 972 q 231 948 208 972 q 255 888 255 925 "},"ќ":{"x_min":103.09375,"x_max":672.796875,"ha":708,"o":"m 428 360 q 478 343 455 356 q 518 310 499 332 q 546 256 537 290 q 581 124 558 212 q 623 82 591 82 q 642 85 632 82 q 651 90 648 88 q 657 90 653 90 q 672 0 661 67 q 648 -6 661 -4 q 588 -13 623 -13 q 497 16 530 -13 q 450 104 465 47 q 415 236 438 147 q 383 286 406 268 q 325 305 360 305 q 241 305 297 305 q 241 0 241 229 q 103 0 207 0 q 103 694 103 173 q 241 694 137 694 q 241 402 241 621 q 310 402 259 402 q 373 421 351 402 q 401 472 394 440 q 428 590 411 511 q 476 678 443 648 q 568 708 508 708 q 600 706 585 708 q 628 701 617 704 q 651 694 641 697 q 637 603 647 664 q 630 603 636 603 q 622 606 628 604 q 613 610 618 609 q 602 611 609 611 q 561 569 571 611 q 533 451 552 530 q 508 401 526 419 q 473 374 492 385 q 428 360 453 363 m 512 959 q 387 750 481 906 q 297 750 364 750 q 359 959 313 801 q 512 959 397 959 "},"ё":{"x_min":69.171875,"x_max":638.890625,"ha":701,"o":"m 354 708 q 469 686 416 708 q 558 618 520 663 q 618 505 596 573 q 638 347 638 439 q 638 326 638 340 q 611 298 632 320 q 208 298 510 298 q 256 135 208 188 q 389 82 305 82 q 447 93 420 82 q 496 113 474 103 q 541 146 520 127 q 556 146 546 146 q 603 62 568 124 q 541 23 577 40 q 469 -2 511 8 q 374 -13 427 -13 q 151 75 234 -13 q 69 347 69 165 q 90 505 69 439 q 149 618 111 573 q 240 686 187 663 q 354 708 291 708 m 354 611 q 249 561 291 611 q 208 396 208 511 q 500 396 305 396 q 458 561 500 511 q 354 611 416 611 m 313 861 q 293 805 313 827 q 237 785 271 785 q 183 805 204 785 q 161 861 161 827 q 183 915 161 893 q 237 937 204 937 q 293 915 271 937 q 313 861 313 893 m 556 861 q 534 805 556 827 q 478 785 512 785 q 424 805 446 785 q 402 861 402 827 q 424 915 402 893 q 478 937 446 937 q 534 915 512 937 q 556 861 556 893 "},"]":{"x_min":27.125,"x_max":305.203125,"ha":430,"o":"m 27 -138 q 166 -138 62 -138 q 166 916 166 124 q 27 916 131 916 q 27 1014 27 941 q 305 1014 97 1014 q 305 -236 305 701 q 27 -236 236 -236 q 27 -138 27 -211 "},"А":{"x_min":20.34375,"x_max":770.46875,"ha":791,"o":"m 632 0 q 556 249 613 62 q 236 249 476 249 q 160 0 217 187 q 20 0 124 0 q 305 972 92 242 q 485 972 351 972 q 770 0 557 729 q 632 0 736 0 m 264 347 q 527 347 329 347 q 416 729 500 442 q 408 762 411 744 q 402 794 405 778 q 398 826 400 811 q 393 826 397 826 q 389 793 392 809 q 382 760 386 777 q 374 729 379 744 q 264 347 337 602 "},"m":{"x_min":103.09375,"x_max":1020.046875,"ha":1118,"o":"m 588 611 q 645 659 614 637 q 712 693 674 678 q 797 708 750 708 q 884 690 845 708 q 954 641 925 674 q 1002 567 984 611 q 1020 472 1020 523 q 1020 0 1020 314 q 880 0 984 0 q 880 472 880 118 q 845 567 880 530 q 762 603 809 603 q 712 592 736 603 q 671 569 689 581 q 630 534 648 554 q 630 0 630 356 q 492 0 595 0 q 492 472 492 118 q 455 567 492 530 q 373 603 420 603 q 324 591 347 603 q 282 562 299 577 q 241 520 260 543 q 241 0 241 347 q 103 0 207 0 q 103 694 103 173 q 199 694 127 694 q 214 611 203 674 q 221 611 215 611 q 271 659 242 637 q 329 693 294 678 q 408 708 363 708 q 492 693 457 708 q 549 659 526 678 q 588 611 573 637 "},"Ы":{"x_min":-31.203125,"x_max":986.140625,"ha":1111,"o":"m 847 972 q 986 972 881 972 q 986 0 986 729 q 847 0 950 0 q 847 972 847 242 m 374 611 q 632 531 548 611 q 714 305 714 453 q 632 78 714 158 q 374 0 548 0 q 124 0 291 0 q 124 972 124 242 q 264 972 160 972 q 264 611 264 881 q 374 611 291 611 m 264 514 q 264 97 264 409 q 374 97 291 97 q 576 305 576 97 q 374 514 576 514 q 264 514 337 514 m -31 661 l -31 661 l -31 661 l -31 661 l -31 661 m 679 375 l 889 375 l 889 234 l 679 234 l 679 375 "},"Е":{"x_min":124.796875,"x_max":667.375,"ha":708,"o":"m 124 0 q 124 972 124 242 q 667 972 260 972 q 667 874 667 948 q 264 874 565 874 q 264 556 264 794 q 583 556 343 556 q 583 458 583 531 q 264 458 503 458 q 264 97 264 367 q 667 97 364 97 q 667 0 667 73 q 124 0 531 0 "},"8":{"x_min":54.265625,"x_max":720.265625,"ha":777,"o":"m 387 458 q 313 424 348 443 q 250 381 278 405 q 208 324 225 355 q 192 249 192 291 q 242 130 192 176 q 387 82 293 82 q 531 130 481 82 q 581 249 581 176 q 565 324 581 291 q 523 381 550 355 q 462 424 497 405 q 387 458 425 443 m 387 569 q 446 594 417 579 q 495 630 473 610 q 527 679 515 651 q 539 743 539 706 q 527 798 539 771 q 495 845 515 824 q 446 877 473 865 q 387 888 417 888 q 328 877 355 888 q 279 845 299 865 q 246 798 257 824 q 234 743 234 771 q 246 679 234 706 q 279 630 257 651 q 328 594 299 610 q 387 569 355 579 m 96 743 q 116 836 96 793 q 173 914 135 880 q 265 967 211 946 q 387 986 320 986 q 510 967 455 986 q 600 914 564 946 q 659 836 638 880 q 679 743 679 793 q 651 630 679 675 q 591 561 623 587 q 505 514 554 530 q 613 462 565 497 q 652 427 633 447 q 687 382 672 408 q 712 322 702 355 q 720 249 720 290 q 698 150 720 196 q 632 65 675 103 q 527 8 588 29 q 387 -13 465 -13 q 248 8 309 -13 q 142 65 185 29 q 77 150 100 103 q 54 249 54 196 q 88 382 54 330 q 161 462 120 432 q 269 514 208 497 q 181 561 219 530 q 123 630 150 587 q 96 743 96 675 "},"Э":{"x_min":33.90625,"x_max":637.53125,"ha":715,"o":"m 637 485 q 613 255 637 349 q 539 100 587 161 q 425 13 493 40 q 276 -13 359 -13 q 173 -2 218 -13 q 97 23 128 8 q 33 62 61 40 q 81 146 50 90 q 96 146 85 146 q 142 113 118 127 q 195 93 165 103 q 263 82 226 82 q 354 101 311 82 q 425 161 396 119 q 477 274 458 204 q 499 444 496 343 q 172 444 389 444 q 172 541 172 469 q 497 541 253 541 q 474 706 493 640 q 425 813 455 773 q 359 872 397 854 q 276 888 321 888 q 210 878 240 888 q 157 857 179 868 q 109 826 131 843 q 96 826 105 826 q 47 910 84 847 q 111 946 74 930 q 187 973 142 963 q 290 986 231 986 q 431 959 367 986 q 541 870 496 931 q 613 716 587 811 q 637 485 637 621 "},"R":{"x_min":124.796875,"x_max":750.109375,"ha":798,"o":"m 264 360 q 264 0 264 271 q 124 0 229 0 q 124 972 124 242 q 360 972 184 972 q 623 892 538 972 q 708 667 708 813 q 518 382 708 444 q 750 0 595 255 q 590 0 710 0 q 374 360 537 90 q 264 360 347 360 m 360 458 q 569 667 569 458 q 360 874 569 874 q 264 874 328 874 q 264 458 264 770 q 360 458 287 458 "},"ю":{"x_min":103.09375,"x_max":922.390625,"ha":993,"o":"m 922 347 q 902 188 922 255 q 842 74 880 120 q 752 8 804 31 q 637 -13 699 -13 q 440 65 516 -13 q 352 305 363 142 q 241 305 316 305 q 241 0 241 229 q 103 0 207 0 q 103 694 103 173 q 241 694 137 694 q 241 402 241 621 q 352 402 269 402 q 382 538 358 480 q 443 633 405 595 q 530 689 480 671 q 637 708 580 708 q 752 686 699 708 q 842 618 804 663 q 902 505 880 573 q 922 347 922 439 m 784 347 q 771 470 784 419 q 739 552 759 520 q 693 596 718 583 q 637 611 667 611 q 581 596 609 611 q 534 552 556 583 q 503 470 515 520 q 492 347 492 419 q 503 223 492 274 q 534 141 515 173 q 581 97 556 111 q 637 82 609 82 q 693 97 667 82 q 739 141 718 111 q 771 223 759 173 q 784 347 784 274 "},"o":{"x_min":69.171875,"x_max":667.375,"ha":735,"o":"m 667 347 q 645 188 667 255 q 584 74 623 120 q 491 8 545 31 q 367 -13 436 -13 q 150 75 231 -13 q 69 347 69 165 q 150 618 69 529 q 367 708 231 708 q 491 686 436 708 q 584 618 545 663 q 645 505 623 573 q 667 347 667 439 m 527 347 q 515 470 527 419 q 480 552 503 520 q 430 596 459 583 q 367 611 401 611 q 305 596 335 611 q 253 552 276 583 q 221 470 233 520 q 208 347 208 419 q 221 223 208 274 q 253 141 233 173 q 305 97 276 111 q 367 82 335 82 q 430 97 401 82 q 480 141 459 111 q 515 223 503 173 q 527 347 527 274 "},"5":{"x_min":33.90625,"x_max":644.3125,"ha":701,"o":"m 81 972 q 609 972 212 972 q 609 874 609 948 q 221 874 511 874 q 221 596 221 805 q 310 596 242 596 q 561 518 478 596 q 644 291 644 439 q 561 65 644 143 q 303 -13 477 -13 q 185 -2 236 -13 q 101 23 134 8 q 33 62 61 40 q 81 146 50 90 q 96 146 85 146 q 146 113 116 127 q 207 93 170 103 q 290 82 242 82 q 505 291 505 82 q 290 500 505 500 q 123 500 234 500 q 81 541 112 510 q 81 972 81 649 "},"Ѕ":{"x_min":47.46875,"x_max":651.09375,"ha":701,"o":"m 352 986 q 470 973 420 986 q 556 946 520 963 q 623 910 594 930 q 575 826 607 881 q 561 826 571 826 q 511 857 539 843 q 450 878 485 868 q 366 888 413 888 q 299 876 330 888 q 246 843 269 864 q 212 794 225 822 q 199 736 199 766 q 233 645 199 680 q 316 581 267 610 q 425 531 366 556 q 534 472 484 507 q 618 389 584 439 q 651 264 651 340 q 630 150 651 200 q 569 62 610 99 q 469 6 529 25 q 332 -13 409 -13 q 211 -2 264 -13 q 122 23 158 8 q 47 62 78 40 q 96 146 63 90 q 109 146 99 146 q 166 113 134 127 q 233 93 193 103 q 318 82 271 82 q 462 130 412 82 q 512 249 512 176 q 478 340 512 305 q 396 402 446 377 q 286 454 345 430 q 177 512 227 478 q 94 596 127 546 q 61 721 61 645 q 81 827 61 778 q 138 911 101 876 q 230 967 176 946 q 352 986 284 986 "},"п":{"x_min":103.09375,"x_max":657.875,"ha":764,"o":"m 657 0 q 519 0 623 0 q 519 596 519 149 q 241 596 450 596 q 241 0 241 447 q 103 0 207 0 q 103 694 103 173 q 657 694 241 694 q 657 0 657 520 "},"7":{"x_min":0,"x_max":596.84375,"ha":610,"o":"m 193 124 q 215 355 193 244 q 272 562 237 466 q 352 737 307 657 q 444 874 397 817 q 0 874 295 874 q 0 972 0 899 q 596 972 149 972 q 596 874 596 948 q 503 737 550 817 q 417 562 455 657 q 356 355 381 466 q 333 124 333 244 q 333 0 333 82 q 193 0 298 0 q 193 124 193 31 "},"K":{"x_min":124.796875,"x_max":750.109375,"ha":770,"o":"m 750 0 q 590 0 710 0 q 264 485 508 122 q 264 0 264 364 q 124 0 229 0 q 124 972 124 242 q 264 972 160 972 q 264 514 264 857 q 576 972 341 628 q 736 972 615 972 q 416 500 656 854 q 750 0 500 374 "},",":{"x_min":54.265625,"x_max":221.09375,"ha":277,"o":"m 54 69 q 75 128 54 105 q 130 153 99 153 q 196 127 172 153 q 221 55 221 103 q 202 -48 221 -5 q 158 -122 181 -93 q 96 -180 130 -157 q 54 -131 81 -164 q 92 -96 74 -115 q 119 -58 107 -78 q 130 -13 130 -37 q 75 9 99 -13 q 54 69 54 33 "},"d":{"x_min":69.171875,"x_max":638.890625,"ha":742,"o":"m 500 583 q 462 596 482 591 q 420 606 444 602 q 367 611 396 611 q 305 596 335 611 q 253 552 276 583 q 221 470 233 520 q 208 347 208 419 q 219 227 208 276 q 250 149 231 179 q 298 104 272 118 q 354 90 325 90 q 412 103 386 90 q 458 131 439 116 q 500 173 481 150 q 500 583 500 310 m 541 972 q 638 972 565 972 q 638 0 638 729 q 541 0 614 0 q 527 82 538 20 q 520 82 526 82 q 472 35 501 55 q 409 1 447 14 q 320 -13 371 -13 q 223 8 269 -13 q 143 74 179 31 q 90 188 111 120 q 69 347 69 255 q 90 505 69 439 q 149 618 111 573 q 237 686 185 663 q 347 708 287 708 q 406 701 379 708 q 454 687 432 694 q 500 667 478 678 q 500 930 500 754 q 541 972 510 941 "},"E":{"x_min":124.796875,"x_max":667.375,"ha":708,"o":"m 124 0 q 124 972 124 242 q 667 972 260 972 q 667 874 667 948 q 264 874 565 874 q 264 556 264 794 q 583 556 343 556 q 583 458 583 531 q 264 458 503 458 q 264 97 264 367 q 667 97 364 97 q 667 0 667 73 q 124 0 531 0 "},"Y":{"x_min":0,"x_max":736.546875,"ha":735,"o":"m 590 972 q 736 972 626 972 q 438 320 661 808 q 438 0 438 240 q 298 0 402 0 q 298 320 298 80 q 0 972 223 482 q 146 972 36 972 q 340 548 193 866 q 351 520 345 534 q 358 495 355 507 q 364 465 362 478 q 370 465 367 465 q 378 495 373 478 q 385 520 381 507 q 396 548 389 534 q 590 972 461 690 "},"\"":{"x_min":54.265625,"x_max":415.078125,"ha":472,"o":"m 54 972 q 199 972 90 972 q 172 638 192 888 q 81 638 149 638 q 54 972 74 721 m 269 972 q 415 972 306 972 q 387 638 408 888 q 297 638 364 638 q 269 972 290 721 "},"Є":{"x_min":75.96875,"x_max":680.9375,"ha":715,"o":"m 75 485 q 101 716 75 621 q 172 870 126 811 q 282 959 218 931 q 423 986 345 986 q 526 973 481 986 q 602 946 571 963 q 667 910 638 930 q 618 826 651 881 q 603 826 614 826 q 557 857 581 843 q 504 878 534 868 q 438 888 473 888 q 355 872 393 888 q 287 813 316 854 q 240 706 257 773 q 217 541 221 640 q 541 541 325 541 q 541 444 541 516 q 215 444 459 444 q 237 274 218 343 q 286 161 255 204 q 359 101 317 119 q 451 82 401 82 q 518 93 486 82 q 571 113 548 103 q 618 146 595 127 q 632 146 622 146 q 680 62 644 124 q 617 23 652 40 q 539 -2 584 8 q 438 -13 496 -13 q 287 13 354 -13 q 173 100 221 40 q 101 255 126 161 q 75 485 75 349 "},"ч":{"x_min":75.96875,"x_max":618.546875,"ha":722,"o":"m 320 236 q 219 253 265 236 q 142 301 174 271 q 93 373 111 332 q 75 465 75 415 q 75 694 75 541 q 215 694 111 694 q 215 465 215 637 q 253 370 215 406 q 354 333 291 333 q 402 336 381 333 q 443 343 425 339 q 478 354 462 348 q 478 694 478 467 q 618 694 514 694 q 618 0 618 520 q 478 0 583 0 q 478 256 478 63 q 432 245 458 250 q 382 238 411 241 q 320 236 352 236 "},"|":{"x_min":124.796875,"x_max":264.5,"ha":388,"o":"m 264 972 q 264 -278 264 659 q 124 -278 229 -278 q 124 972 124 35 q 264 972 160 972 "},"џ":{"x_min":103.09375,"x_max":657.875,"ha":764,"o":"m 103 0 q 103 694 103 173 q 241 694 137 694 q 241 97 241 545 q 519 97 310 97 q 519 694 519 246 q 657 694 554 694 q 657 0 657 520 q 450 0 606 0 q 436 -193 446 -48 q 325 -193 408 -193 q 310 0 321 -146 q 103 0 259 0 "},"љ":{"x_min":13.5625,"x_max":1021.40625,"ha":1055,"o":"m 743 458 q 954 398 888 458 q 1021 229 1021 339 q 954 59 1021 119 q 743 0 888 0 q 478 0 655 0 q 478 596 478 149 q 291 596 432 596 q 271 222 286 503 q 215 42 264 97 q 90 -13 168 -13 q 36 -6 59 -13 q 13 0 23 -4 q 20 90 16 29 q 35 90 24 90 q 43 85 37 88 q 62 82 54 82 q 107 111 89 82 q 131 222 126 138 q 160 694 141 379 q 618 694 274 694 q 618 458 618 634 q 743 458 649 458 m 618 360 q 618 97 618 295 q 743 97 649 97 q 849 128 816 97 q 881 229 881 161 q 849 329 881 297 q 743 360 816 360 q 618 360 701 360 "},"И":{"x_min":124.796875,"x_max":750.109375,"ha":875,"o":"m 264 0 q 124 0 229 0 q 124 972 124 242 q 264 972 160 972 q 264 354 264 817 q 263 317 264 339 q 261 279 263 297 q 257 236 259 256 q 264 236 260 236 q 276 279 269 256 q 290 317 283 297 q 305 354 297 339 q 611 972 406 560 q 750 972 645 972 q 750 0 750 729 q 611 0 714 0 q 611 618 611 154 q 611 653 611 633 q 614 693 613 674 q 617 736 615 713 q 611 736 614 736 q 598 693 604 713 q 584 653 591 674 q 569 618 576 633 q 264 0 467 412 "},"й":{"x_min":103.09375,"x_max":657.875,"ha":764,"o":"m 241 0 q 103 0 207 0 q 103 694 103 173 q 241 694 137 694 q 241 298 241 595 q 241 267 241 283 q 238 234 240 249 q 236 200 237 218 q 241 200 237 200 q 252 234 246 218 q 283 298 264 267 q 519 694 362 430 q 657 694 554 694 q 657 0 657 520 q 519 0 623 0 q 519 396 519 99 q 520 427 519 411 q 522 459 520 444 q 524 493 523 476 q 519 493 523 493 q 508 459 514 476 q 477 396 497 427 q 241 0 398 264 m 381 847 q 443 869 421 847 q 463 944 463 891 q 588 944 505 944 q 537 812 588 861 q 381 763 484 763 q 223 812 276 763 q 172 944 172 861 q 297 944 214 944 q 318 869 297 891 q 381 847 339 847 "},"b":{"x_min":103.09375,"x_max":672.796875,"ha":742,"o":"m 241 173 q 283 131 260 150 q 329 103 302 116 q 387 90 355 90 q 443 104 416 90 q 488 149 469 118 q 522 227 510 179 q 533 347 533 276 q 520 470 533 419 q 485 552 508 520 q 436 596 465 583 q 373 611 406 611 q 321 606 344 611 q 279 596 297 602 q 241 583 257 591 q 241 173 241 446 m 241 972 q 241 667 241 895 q 286 687 261 678 q 335 701 306 694 q 394 708 362 708 q 504 686 454 708 q 592 618 556 663 q 651 505 630 573 q 672 347 672 439 q 651 188 672 255 q 595 74 630 120 q 516 8 562 31 q 421 -13 472 -13 q 332 1 368 -13 q 269 35 294 14 q 221 82 240 55 q 214 82 218 82 q 199 0 210 62 q 103 0 176 0 q 103 930 103 233 q 145 972 112 941 q 241 972 168 972 "},"q":{"x_min":69.171875,"x_max":638.890625,"ha":742,"o":"m 500 520 q 458 562 481 543 q 412 591 439 577 q 354 603 386 603 q 298 590 325 603 q 250 545 272 576 q 219 466 231 515 q 208 347 208 417 q 221 223 208 274 q 253 141 233 173 q 305 97 276 111 q 367 82 335 82 q 420 88 396 82 q 462 97 444 92 q 500 111 482 103 q 500 520 500 248 m 500 -236 q 500 27 500 -169 q 454 6 478 14 q 406 -8 432 -1 q 347 -13 379 -13 q 237 8 287 -13 q 149 74 185 31 q 90 188 111 120 q 69 347 69 255 q 90 505 69 439 q 143 618 111 573 q 223 686 179 663 q 320 708 269 708 q 409 693 371 708 q 472 659 447 678 q 520 611 501 637 q 527 611 523 611 q 541 694 531 632 q 638 694 565 694 q 638 -278 638 451 q 541 -278 614 -278 q 500 -236 531 -267 "},"Љ":{"x_min":13.5625,"x_max":1174.6875,"ha":1224,"o":"m 834 611 q 1091 531 1007 611 q 1174 305 1174 453 q 1091 78 1174 158 q 834 0 1007 0 q 569 0 746 0 q 569 874 569 218 q 311 874 504 874 q 278 222 303 712 q 219 43 271 101 q 90 -13 169 -13 q 36 -6 59 -13 q 13 0 23 -4 q 20 90 16 29 q 35 90 24 90 q 43 85 37 88 q 62 82 54 82 q 111 113 89 82 q 138 222 134 143 q 180 972 153 472 q 709 972 313 972 q 709 611 709 881 q 834 611 740 611 m 709 514 q 709 97 709 409 q 834 97 740 97 q 1036 305 1036 97 q 834 514 1036 514 q 709 514 793 514 "},"р":{"x_min":103.09375,"x_max":672.796875,"ha":742,"o":"m 241 111 q 279 97 257 103 q 321 88 297 92 q 373 82 344 82 q 436 97 406 82 q 485 141 465 111 q 520 223 508 173 q 533 347 533 274 q 522 466 533 417 q 488 545 510 515 q 443 590 469 576 q 387 603 416 603 q 329 591 355 603 q 283 562 302 577 q 241 520 260 543 q 241 111 241 383 m 199 -278 q 103 -278 176 -278 q 103 694 103 -35 q 199 694 127 694 q 214 611 203 674 q 221 611 215 611 q 269 659 240 637 q 332 693 294 678 q 421 708 368 708 q 516 686 472 708 q 595 618 562 663 q 651 505 630 573 q 672 347 672 439 q 651 188 672 255 q 592 74 630 120 q 504 8 556 31 q 394 -13 454 -13 q 335 -8 362 -13 q 286 6 306 -1 q 241 27 261 14 q 241 -236 241 -59 q 199 -278 231 -246 "},"т":{"x_min":13.5625,"x_max":569.703125,"ha":583,"o":"m 569 596 q 360 596 516 596 q 360 0 360 447 q 222 0 326 0 q 222 596 222 149 q 13 596 169 596 q 13 694 13 621 q 569 694 153 694 q 569 596 569 670 "},"П":{"x_min":124.796875,"x_max":750.109375,"ha":875,"o":"m 750 972 q 750 0 750 729 q 611 0 714 0 q 611 874 611 218 q 264 874 524 874 q 264 0 264 656 q 124 0 229 0 q 124 972 124 242 q 750 972 280 972 "},"z":{"x_min":47.46875,"x_max":561.5625,"ha":610,"o":"m 47 0 q 47 104 47 25 q 387 596 132 227 q 47 596 302 596 q 47 694 47 621 q 554 694 173 694 q 554 590 554 668 q 214 97 469 466 q 561 97 301 97 q 561 0 561 73 q 47 0 432 0 "},"Ж":{"x_min":18.984375,"x_max":1154.328125,"ha":1194,"o":"m 666 548 q 728 548 680 548 q 819 576 786 548 q 859 652 851 604 q 893 847 884 800 q 942 940 906 910 q 1047 971 978 971 q 1085 968 1068 971 q 1109 963 1098 965 q 1131 957 1123 960 q 1124 878 1131 919 q 1116 881 1123 876 q 1108 884 1113 883 q 1100 887 1104 885 q 1089 888 1094 888 q 1053 873 1067 888 q 1033 826 1039 858 q 998 632 1005 674 q 968 565 991 590 q 922 527 945 539 q 859 507 893 512 q 922 481 892 499 q 971 439 946 466 q 1005 367 994 412 q 1053 146 1021 294 q 1109 82 1067 82 q 1129 85 1117 82 q 1138 88 1133 86 q 1144 90 1140 89 q 1154 13 1148 63 q 1133 6 1146 9 q 1071 0 1109 0 q 968 24 992 0 q 915 124 929 62 q 866 347 899 199 q 824 423 855 394 q 741 451 794 451 q 666 451 716 451 q 666 0 666 339 q 526 0 630 0 q 526 451 526 112 q 450 451 507 451 q 366 423 397 451 q 325 347 336 394 q 276 124 309 272 q 223 24 269 92 q 119 0 207 0 q 39 10 84 0 q 18 17 27 13 q 30 99 28 100 q 36 94 32 97 q 44 89 42 89 q 81 80 59 80 q 137 146 122 80 q 185 367 153 219 q 219 439 195 412 q 269 481 244 466 q 332 507 298 499 q 269 527 297 512 q 222 565 245 539 q 192 632 199 590 q 158 826 181 697 q 103 888 147 888 q 92 887 97 888 q 63 880 77 884 q 39 873 51 877 q 33 872 36 872 q 18 949 29 893 q 39 956 25 952 q 84 965 52 960 q 135 971 116 971 q 246 945 221 971 q 297 847 286 907 q 332 652 309 782 q 373 576 340 604 q 463 548 405 548 q 526 548 484 548 q 526 972 526 655 q 666 972 561 972 q 666 548 666 866 "},"и":{"x_min":103.09375,"x_max":657.875,"ha":764,"o":"m 241 0 q 103 0 207 0 q 103 694 103 173 q 241 694 137 694 q 241 298 241 595 q 241 267 241 283 q 238 234 240 249 q 236 200 237 218 q 241 200 237 200 q 252 234 246 218 q 283 298 264 267 q 519 694 362 430 q 657 694 554 694 q 657 0 657 520 q 519 0 623 0 q 519 396 519 99 q 520 427 519 411 q 522 459 520 444 q 524 493 523 476 q 519 493 523 493 q 508 459 514 476 q 477 396 497 427 q 241 0 398 264 "},"~":{"x_min":33.90625,"x_max":644.3125,"ha":680,"o":"m 221 430 q 179 419 196 430 q 147 392 160 406 q 128 366 134 378 q 122 354 122 354 q 109 354 118 354 q 33 423 90 371 q 58 470 42 447 q 99 512 74 495 q 153 543 122 531 q 221 556 184 556 q 293 541 263 556 q 348 510 324 527 q 400 478 375 493 q 457 465 424 465 q 499 477 480 465 q 530 503 518 488 q 549 530 542 518 q 556 541 556 541 q 568 541 560 541 q 644 472 587 524 q 619 424 636 448 q 579 382 602 401 q 524 352 556 363 q 457 340 493 340 q 385 354 415 340 q 328 385 354 367 q 276 416 302 402 q 221 430 250 430 "},"Н":{"x_min":124.796875,"x_max":750.109375,"ha":875,"o":"m 750 972 q 750 0 750 729 q 611 0 714 0 q 611 444 611 111 q 264 444 524 444 q 264 0 264 333 q 124 0 229 0 q 124 972 124 242 q 264 972 160 972 q 264 541 264 864 q 611 541 351 541 q 611 972 611 649 q 750 972 645 972 "},"ф":{"x_min":62.390625,"x_max":881.6875,"ha":944,"o":"m 541 82 q 689 150 636 89 q 743 347 743 211 q 689 543 743 482 q 541 611 636 604 q 541 82 541 435 m 402 930 q 444 972 413 941 q 541 972 469 972 q 541 708 541 906 q 793 611 704 702 q 881 347 881 520 q 793 82 881 173 q 541 -13 704 -8 q 541 -278 541 -101 q 402 -278 507 -278 q 402 -13 402 -211 q 151 82 240 -8 q 62 347 62 173 q 151 611 62 520 q 402 708 240 702 q 402 930 402 782 m 402 611 q 255 543 307 604 q 200 347 200 482 q 255 150 200 211 q 402 82 307 89 q 402 611 402 259 "},"л":{"x_min":13.5625,"x_max":645.671875,"ha":749,"o":"m 62 82 q 107 111 89 82 q 131 222 126 138 q 160 694 141 379 q 645 694 280 694 q 645 0 645 520 q 507 0 611 0 q 507 596 507 149 q 291 596 453 596 q 271 222 286 503 q 215 42 264 97 q 90 -13 168 -13 q 36 -6 59 -13 q 13 0 23 -4 q 20 90 16 29 q 35 90 24 90 q 43 85 37 88 q 62 82 54 82 "},"[":{"x_min":124.796875,"x_max":402.859375,"ha":430,"o":"m 402 -236 q 124 -236 333 -236 q 124 1014 124 75 q 402 1014 193 1014 q 402 916 402 990 q 264 916 367 916 q 264 -138 264 652 q 402 -138 298 -138 q 402 -236 402 -162 "},"Щ":{"x_min":88.171875,"x_max":1329.3125,"ha":1298,"o":"m 88 -416 q 88 556 88 -172 q 226 556 122 556 q 226 -318 226 337 q 531 -318 302 -318 q 531 556 531 -100 q 671 556 567 556 q 671 -318 671 337 q 872 -317 762 -317 q 976 -180 915 -259 q 976 556 976 66 q 1115 556 1010 556 q 1115 -187 1115 240 q 942 -416 1013 -328 q 88 -416 695 -416 m 1108 -74 l 1329 -221 l 1329 -419 l 1238 -417 l 1238 -274 l 1108 -187 l 1108 -74 "},"L":{"x_min":124.796875,"x_max":667.375,"ha":680,"o":"m 264 972 q 264 97 264 754 q 667 97 364 97 q 667 0 667 73 q 124 0 531 0 q 124 972 124 242 q 264 972 160 972 "},"К":{"x_min":124.796875,"x_max":775.890625,"ha":813,"o":"m 478 507 q 541 481 512 499 q 590 439 567 466 q 625 367 614 412 q 674 146 641 294 q 729 82 687 82 q 748 85 743 82 q 756 90 754 88 q 763 90 759 90 q 775 13 770 67 q 755 8 767 10 q 693 0 732 0 q 587 24 611 0 q 534 124 548 62 q 485 347 518 199 q 444 423 474 394 q 360 451 413 451 q 264 451 328 451 q 264 0 264 339 q 124 0 229 0 q 124 971 124 241 q 264 971 160 971 q 264 548 264 865 q 347 548 284 548 q 438 576 405 548 q 478 652 470 604 q 514 847 511 827 q 562 931 519 891 q 671 971 599 968 q 702 968 685 971 q 733 963 722 967 q 754 956 746 959 q 741 878 779 866 q 736 881 739 880 q 728 884 733 883 q 718 887 724 885 q 708 888 713 888 q 672 873 687 888 q 652 826 657 858 q 618 632 638 760 q 588 565 611 590 q 541 527 565 539 q 478 507 514 512 "}," ":{"x_min":0,"x_max":0,"ha":374},"%":{"x_min":40.6875,"x_max":1067.515625,"ha":1111,"o":"m 804 972 q 957 972 842 972 q 303 0 793 729 q 151 0 265 0 q 804 972 314 242 m 263 903 q 192 865 221 903 q 165 736 165 828 q 173 656 165 689 q 192 604 180 625 q 223 577 206 585 q 263 569 241 569 q 301 577 283 569 q 332 604 320 585 q 352 656 344 625 q 359 736 359 689 q 332 865 359 828 q 263 903 303 903 m 263 986 q 423 921 362 986 q 484 736 484 857 q 423 550 484 615 q 263 485 362 485 q 101 550 162 485 q 40 736 40 615 q 101 921 40 857 q 263 986 162 986 m 846 402 q 775 366 804 402 q 748 236 748 329 q 756 157 748 188 q 775 105 763 124 q 807 77 789 85 q 846 69 824 69 q 884 77 866 69 q 915 105 903 85 q 935 157 927 124 q 942 236 942 188 q 915 366 942 329 q 846 402 887 402 m 846 485 q 1006 421 945 485 q 1067 236 1067 356 q 1006 50 1067 115 q 846 -13 945 -13 q 685 50 746 -13 q 623 236 623 115 q 685 421 623 356 q 846 485 746 485 "},"P":{"x_min":124.796875,"x_max":721.625,"ha":784,"o":"m 374 430 q 531 484 478 430 q 583 652 583 537 q 531 822 583 767 q 374 874 478 874 q 264 874 337 874 q 264 430 264 763 q 374 430 291 430 m 264 333 q 264 0 264 249 q 124 0 229 0 q 124 972 124 242 q 374 972 187 972 q 637 891 553 972 q 721 652 721 809 q 637 415 721 496 q 374 333 553 333 q 264 333 337 333 "},"_":{"x_min":0,"x_max":527.65625,"ha":528,"o":"m 0 -180 q 0 -69 0 -153 q 527 -69 131 -69 q 527 -180 527 -97 q 0 -180 396 -180 "},"+":{"x_min":40.6875,"x_max":610.40625,"ha":652,"o":"m 269 402 q 40 402 211 402 q 40 514 40 430 q 269 514 97 514 q 269 743 269 571 q 381 743 297 743 q 381 514 381 686 q 610 514 438 514 q 610 402 610 485 q 381 402 552 402 q 381 173 381 345 q 269 173 352 173 q 269 402 269 230 "},"ѓ":{"x_min":103.09375,"x_max":561.5625,"ha":575,"o":"m 561 596 q 241 596 481 596 q 241 0 241 447 q 103 0 207 0 q 103 694 103 173 q 561 694 217 694 q 561 596 561 670 m 484 972 q 359 763 453 919 q 269 763 337 763 q 332 972 284 816 q 484 972 370 972 "},"ы":{"x_min":103.09375,"x_max":880.328125,"ha":986,"o":"m 880 0 q 741 0 846 0 q 741 694 741 173 q 880 694 775 694 q 880 0 880 520 m 352 458 q 564 398 499 458 q 630 229 630 339 q 564 59 630 119 q 352 0 499 0 q 103 0 269 0 q 103 694 103 173 q 241 694 137 694 q 241 458 241 634 q 352 458 269 458 m 241 360 q 241 97 241 295 q 352 97 269 97 q 458 128 425 97 q 492 229 492 161 q 458 329 492 297 q 352 360 425 360 q 241 360 316 360 "},"'":{"x_min":54.265625,"x_max":199.390625,"ha":256,"o":"m 54 972 q 199 972 90 972 q 172 638 192 888 q 81 638 149 638 q 54 972 74 721 "},"ї":{"x_min":-33.90625,"x_max":383.875,"ha":347,"o":"m 244 694 q 244 0 244 520 q 105 0 210 0 q 105 694 105 173 q 244 694 139 694 m 132 888 q 109 828 132 853 q 50 805 85 805 q -9 828 13 805 q -33 888 -33 853 q -9 948 -33 925 q 50 972 13 972 q 109 948 85 972 q 132 888 132 925 m 383 888 q 359 828 383 853 q 299 805 336 805 q 240 828 264 805 q 217 888 217 853 q 240 948 217 925 q 299 972 264 972 q 359 948 336 972 q 383 888 383 925 "},"Р":{"x_min":124.796875,"x_max":721.625,"ha":784,"o":"m 374 430 q 531 484 478 430 q 583 652 583 537 q 531 822 583 767 q 374 874 478 874 q 264 874 337 874 q 264 430 264 763 q 374 430 291 430 m 264 333 q 264 0 264 249 q 124 0 229 0 q 124 972 124 242 q 374 972 187 972 q 637 891 553 972 q 721 652 721 809 q 637 415 721 496 q 374 333 553 333 q 264 333 337 333 "},"щ":{"x_min":103.09375,"x_max":1082.4375,"ha":1131,"o":"m 103 0 q 103 694 103 173 q 241 694 137 694 q 241 97 241 545 q 477 97 301 97 q 477 694 477 246 q 617 694 512 694 q 617 97 617 545 q 853 97 675 97 q 853 694 853 246 q 991 694 887 694 q 991 97 991 545 q 1082 97 1014 97 q 1082 -193 1082 24 q 971 -193 1053 -193 q 949 0 965 -146 q 103 0 737 0 "},"T":{"x_min":13.5625,"x_max":652.453125,"ha":666,"o":"m 264 0 q 264 874 264 218 q 13 874 200 874 q 13 972 13 899 q 652 972 173 972 q 652 874 652 948 q 402 874 590 874 q 402 0 402 656 q 264 0 367 0 "},"Њ":{"x_min":124.796875,"x_max":1201.8125,"ha":1249,"o":"m 861 583 q 1117 504 1033 583 q 1201 291 1201 425 q 1117 77 1201 155 q 861 0 1033 0 q 596 0 773 0 q 596 485 596 122 q 264 485 514 485 q 264 0 264 364 q 124 0 229 0 q 124 972 124 242 q 264 972 160 972 q 264 583 264 874 q 596 583 347 583 q 596 972 596 680 q 736 972 632 972 q 736 583 736 874 q 861 583 767 583 m 736 485 q 736 97 736 389 q 861 97 767 97 q 1011 147 961 97 q 1062 291 1062 196 q 1011 436 1062 386 q 861 485 961 485 q 736 485 819 485 "},"є":{"x_min":69.171875,"x_max":603.625,"ha":631,"o":"m 374 611 q 264 564 307 611 q 210 402 221 518 q 459 402 293 402 q 459 305 459 378 q 210 305 397 305 q 263 134 215 185 q 389 82 310 82 q 447 93 420 82 q 496 113 474 103 q 541 146 520 127 q 556 146 546 146 q 603 62 568 124 q 541 23 577 40 q 469 -2 511 8 q 374 -13 427 -13 q 151 75 234 -13 q 69 347 69 165 q 90 505 69 439 q 150 618 111 573 q 242 686 188 663 q 360 708 295 708 q 455 697 413 708 q 527 670 497 685 q 590 632 564 652 q 541 548 573 603 q 527 548 538 548 q 481 579 507 565 q 434 600 461 590 q 374 611 406 611 "},"j":{"x_min":-124.796875,"x_max":256.375,"ha":347,"o":"m 256 888 q 233 828 256 853 q 173 805 210 805 q 113 828 137 805 q 90 888 90 853 q 113 948 90 925 q 173 972 137 972 q 233 948 210 972 q 256 888 256 925 m 0 -180 q 75 -149 47 -180 q 104 -55 104 -118 q 104 694 104 193 q 242 694 138 694 q 242 -55 242 507 q 226 -146 242 -105 q 180 -217 211 -187 q 107 -261 150 -245 q 13 -278 65 -278 q -43 -271 -17 -278 q -88 -256 -69 -265 q -124 -236 -109 -248 q -90 -146 -113 -206 q -75 -146 -86 -146 q -54 -164 -66 -157 q -29 -176 -43 -170 q 0 -180 -14 -180 "},"1":{"x_min":27.125,"x_max":514.09375,"ha":541,"o":"m 222 819 q 82 729 187 797 q 27 805 69 748 q 236 972 80 847 q 360 972 267 972 q 360 97 360 754 q 514 97 398 97 q 514 0 514 73 q 69 0 402 0 q 69 97 69 24 q 222 97 107 97 q 222 819 222 278 "},"ћ":{"x_min":33.90625,"x_max":679.578125,"ha":777,"o":"m 123 819 q 123 930 123 847 q 165 972 134 941 q 263 972 189 972 q 263 819 263 934 q 450 819 309 819 q 450 721 450 794 q 263 721 402 721 q 263 556 263 680 q 307 590 282 575 q 364 614 332 602 q 443 625 398 625 q 538 607 495 625 q 613 558 581 590 q 661 484 644 527 q 679 389 679 440 q 679 0 679 259 q 539 0 644 0 q 539 389 539 97 q 503 484 539 447 q 408 520 466 520 q 349 507 377 520 q 303 478 324 495 q 263 438 280 461 q 263 0 263 291 q 123 0 227 0 q 123 721 123 180 q 33 721 101 721 q 33 819 33 746 q 123 819 55 819 "},"Т":{"x_min":13.5625,"x_max":652.453125,"ha":666,"o":"m 264 0 q 264 874 264 218 q 13 874 200 874 q 13 972 13 899 q 652 972 173 972 q 652 874 652 948 q 402 874 590 874 q 402 0 402 656 q 264 0 367 0 "},"<":{"x_min":54.265625,"x_max":595.484375,"ha":652,"o":"m 595 694 q 595 562 595 661 q 207 347 499 508 q 595 131 303 293 q 595 0 595 99 q 54 298 459 74 q 54 396 54 322 q 595 694 189 470 "},"Ц":{"x_min":124.796875,"x_max":944.09375,"ha":876,"o":"m 855 2 q 855 82 855 43 q 701 196 759 154 q 534 0 576 50 q 126 0 432 0 q 124 972 126 265 q 264 972 160 972 q 264 97 264 754 q 469 97 298 97 q 596 250 515 150 q 596 972 596 496 q 736 972 632 972 l 740 294 l 944 145 l 944 2 l 855 2 "},"t":{"x_min":27.125,"x_max":556.140625,"ha":555,"o":"m 271 208 q 299 113 271 146 q 374 82 328 82 q 419 92 398 82 q 457 111 440 100 q 493 138 476 123 q 507 138 497 138 q 556 55 519 118 q 500 20 530 36 q 438 -4 473 6 q 360 -13 402 -13 q 267 2 307 -13 q 193 47 225 17 q 147 118 164 75 q 131 208 131 158 q 131 596 131 337 q 27 596 105 596 q 27 680 27 618 q 208 861 73 725 q 271 861 223 861 q 271 694 271 819 q 444 694 314 694 q 444 596 444 670 q 271 596 401 596 q 271 208 271 500 "},"W":{"x_min":20.34375,"x_max":1173.328125,"ha":1194,"o":"m 841 291 q 846 256 843 276 q 851 221 849 237 q 855 180 854 200 q 861 180 857 180 q 864 221 861 200 q 869 256 866 237 q 874 291 870 276 q 1034 972 927 518 q 1173 972 1068 972 q 944 0 1116 729 q 777 0 903 0 q 618 680 737 169 q 611 714 614 695 q 604 751 609 735 q 599 792 602 770 q 594 792 598 792 q 588 751 591 770 q 583 714 585 735 q 576 680 579 695 q 416 0 523 454 q 249 0 374 0 q 20 972 192 242 q 160 972 55 972 q 320 291 199 801 q 325 256 322 276 q 330 221 328 237 q 333 180 333 200 q 339 180 335 180 q 343 221 340 200 q 348 256 345 237 q 354 291 349 276 q 514 972 406 518 q 680 972 556 972 q 841 291 720 801 "},"а":{"x_min":62.390625,"x_max":611.75,"ha":708,"o":"m 472 444 q 432 569 472 527 q 326 611 394 611 q 267 600 294 611 q 218 579 238 590 q 173 548 192 565 q 160 548 169 548 q 111 632 147 569 q 173 670 137 652 q 245 697 204 685 q 340 708 287 708 q 450 689 400 708 q 534 633 500 670 q 591 550 571 598 q 611 444 611 501 q 611 0 611 295 q 514 0 587 0 q 500 82 510 20 q 493 82 497 82 q 444 35 473 55 q 382 1 419 14 q 291 -13 344 -13 q 122 43 181 -13 q 62 200 62 101 q 78 286 62 248 q 130 351 96 325 q 223 394 166 379 q 360 409 280 409 q 472 409 398 409 q 472 444 472 417 m 472 311 q 360 311 444 311 q 240 280 278 311 q 200 200 200 248 q 233 119 200 149 q 326 90 264 90 q 385 103 358 90 q 430 131 411 116 q 472 173 454 150 q 472 311 472 219 "},"Ф":{"x_min":-820.65625,"x_max":1006.484375,"ha":1069,"o":"m 465 983 q 603 983 473 983 q 603 916 603 959 q 903 797 798 906 q 1006 485 1006 690 q 903 174 1006 282 q 603 55 798 66 q 600 0 600 65 q 466 0 539 0 q 465 55 466 24 q 166 174 271 66 q 62 485 62 282 q 166 797 62 690 q 465 916 271 906 q 465 983 465 948 m -820 -523 l -820 -523 l -820 -523 l -820 -523 l -820 -523 m -523 -337 l -523 -337 l -523 -337 l -523 -337 l -523 -337 m 607 146 q 897 394 865 179 q 767 777 933 660 q 607 822 699 823 q 607 146 610 339 m 461 146 q 461 822 458 339 q 301 777 368 823 q 170 394 135 660 q 461 146 203 179 "},">":{"x_min":47.46875,"x_max":588.703125,"ha":617,"o":"m 588 396 q 588 298 588 371 q 47 0 453 223 q 47 131 47 32 q 436 347 145 185 q 47 562 339 401 q 47 694 47 595 q 588 396 183 619 "},"v":{"x_min":20.34375,"x_max":632.109375,"ha":652,"o":"m 242 0 q 20 694 187 173 q 160 694 55 694 q 305 236 196 580 q 313 204 310 221 q 320 172 316 187 q 324 138 322 155 q 329 138 325 138 q 333 172 330 155 q 339 204 336 187 q 347 236 341 221 q 493 694 396 389 q 632 694 527 694 q 409 0 576 520 q 242 0 367 0 "},"Ї":{"x_min":-33.90625,"x_max":383.875,"ha":347,"o":"m 112 972 q 250 972 147 972 q 250 0 250 729 q 112 0 217 0 q 112 972 112 242 m 132 1166 q 109 1106 132 1131 q 50 1083 85 1083 q -9 1106 13 1083 q -33 1166 -33 1131 q -9 1226 -33 1203 q 50 1250 13 1250 q 109 1226 85 1250 q 132 1166 132 1203 m 383 1166 q 359 1106 383 1131 q 299 1083 336 1083 q 240 1106 264 1083 q 217 1166 217 1131 q 240 1226 217 1203 q 299 1250 264 1250 q 359 1226 336 1250 q 383 1166 383 1203 "},"О":{"x_min":75.96875,"x_max":756.890625,"ha":833,"o":"m 215 485 q 231 294 215 370 q 276 169 248 217 q 341 103 305 123 q 416 82 378 82 q 491 103 455 82 q 556 169 527 123 q 600 294 584 217 q 618 485 618 370 q 600 678 618 599 q 556 801 584 755 q 491 869 527 849 q 416 888 455 888 q 341 869 378 888 q 276 801 305 849 q 231 678 248 755 q 215 485 215 599 m 756 485 q 732 255 756 349 q 661 100 706 161 q 554 13 618 40 q 416 -13 491 -13 q 278 13 341 -13 q 170 100 215 40 q 101 255 126 161 q 75 485 75 349 q 101 716 75 621 q 170 870 126 811 q 278 959 215 931 q 416 986 341 986 q 554 959 491 986 q 661 870 618 931 q 732 716 706 811 q 756 485 756 621 "},"&":{"x_min":40.6875,"x_max":846.421875,"ha":853,"o":"m 40 249 q 56 336 40 297 q 101 409 73 377 q 166 472 130 443 q 241 527 203 501 q 181 598 207 561 q 141 674 160 630 q 123 763 123 716 q 187 925 123 864 q 366 986 250 986 q 465 969 420 986 q 538 926 508 953 q 585 859 569 899 q 602 777 602 822 q 573 672 602 718 q 508 588 543 625 q 415 514 466 546 q 623 264 484 430 q 645 345 638 299 q 651 444 651 392 q 775 444 693 444 q 756 298 775 364 q 699 173 736 231 q 846 0 748 115 q 679 0 804 0 q 610 82 661 20 q 481 10 552 36 q 332 -13 411 -13 q 210 5 264 -13 q 118 59 155 24 q 61 143 80 96 q 40 249 40 192 m 359 82 q 465 100 417 82 q 546 153 511 116 q 310 438 467 248 q 217 351 253 396 q 179 249 179 306 q 227 130 179 176 q 359 82 276 82 m 263 763 q 275 706 263 735 q 303 655 288 679 q 345 603 322 629 q 404 653 379 626 q 444 709 425 678 q 463 777 463 741 q 436 865 463 835 q 366 895 408 895 q 291 864 320 895 q 263 763 263 831 "},"I":{"x_min":32.5625,"x_max":364.890625,"ha":388,"o":"m 124 972 q 264 972 160 972 q 264 0 264 729 q 124 0 229 0 q 124 972 124 242 m 33 99 l 364 99 l 363 -1 l 32 -1 l 33 99 m 33 972 l 364 972 l 363 872 l 32 872 l 33 972 "},"G":{"x_min":75.96875,"x_max":694.5,"ha":784,"o":"m 694 62 q 626 23 664 40 q 545 -2 592 8 q 438 -13 497 -13 q 293 14 359 -13 q 177 105 226 44 q 103 261 130 166 q 75 485 75 355 q 103 710 75 617 q 176 866 130 805 q 286 957 223 927 q 423 986 349 986 q 526 973 481 986 q 602 946 571 963 q 667 910 638 930 q 618 826 651 881 q 603 826 614 826 q 557 857 581 843 q 504 878 534 868 q 438 888 473 888 q 349 869 390 888 q 279 801 309 849 q 233 678 249 755 q 215 485 215 599 q 233 294 215 370 q 280 169 249 217 q 355 103 311 123 q 451 82 398 82 q 491 88 472 82 q 523 97 510 93 q 546 107 538 103 q 556 111 556 111 q 556 430 556 217 q 396 430 515 430 q 396 527 396 454 q 652 527 459 527 q 694 485 663 516 q 694 62 694 379 "},"`":{"x_min":13.5625,"x_max":229.234375,"ha":243,"o":"m 166 972 q 229 763 181 919 q 138 763 206 763 q 13 972 107 816 q 166 972 51 972 "},"Х":{"x_min":20.34375,"x_max":714.84375,"ha":735,"o":"m 340 659 q 349 640 344 649 q 356 619 354 629 q 364 596 360 609 q 370 596 367 596 q 379 619 374 609 q 386 640 382 629 q 396 659 390 649 q 556 972 448 763 q 708 972 594 972 q 458 493 645 851 q 714 0 522 370 q 562 0 676 0 q 396 326 520 81 q 386 345 390 335 q 379 366 382 356 q 370 389 374 378 q 364 389 368 389 q 356 366 360 378 q 340 326 349 345 q 173 0 284 217 q 20 0 135 0 q 278 493 85 123 q 27 972 215 613 q 180 972 66 972 q 340 659 221 893 "},"r":{"x_min":103.09375,"x_max":505.953125,"ha":506,"o":"m 381 596 q 326 584 351 596 q 282 556 301 571 q 241 514 260 537 q 241 0 241 343 q 103 0 207 0 q 103 694 103 173 q 199 694 127 694 q 214 611 203 674 q 221 611 215 611 q 268 659 240 637 q 328 693 291 678 q 415 708 364 708 q 450 706 434 708 q 478 701 466 704 q 505 694 495 697 q 484 583 499 657 q 470 583 481 583 q 442 590 457 585 q 412 595 427 592 q 381 596 396 596 "},"ж":{"x_min":33.90625,"x_max":991.5625,"ha":1027,"o":"m 853 451 q 828 404 846 421 q 794 378 812 387 q 760 364 775 367 q 741 360 746 360 q 760 356 744 360 q 798 340 777 351 q 839 309 819 329 q 866 256 858 288 q 902 124 878 212 q 942 82 911 82 q 963 85 950 82 q 971 90 968 88 q 978 90 973 90 q 991 0 980 67 q 968 -6 982 -4 q 908 -13 942 -13 q 817 16 850 -13 q 769 104 785 47 q 735 236 758 147 q 704 286 727 268 q 644 305 680 305 q 581 305 623 305 q 581 0 581 229 q 443 0 546 0 q 443 305 443 75 q 381 305 427 305 q 321 286 344 305 q 290 236 298 268 q 255 104 279 192 q 207 16 240 47 q 116 -13 174 -13 q 56 -6 81 -13 q 33 0 43 -4 q 47 90 37 29 q 54 90 48 90 q 62 85 56 88 q 81 82 73 82 q 123 124 112 82 q 158 256 135 169 q 185 307 166 287 q 223 339 204 328 q 261 355 244 349 q 283 360 279 359 q 265 363 280 360 q 230 377 249 366 q 195 404 212 386 q 172 451 179 421 q 145 569 162 491 q 103 611 132 611 q 92 610 97 611 q 82 606 88 609 q 74 603 77 604 q 67 603 73 603 q 54 694 65 626 q 77 701 63 697 q 103 706 89 704 q 137 708 118 708 q 229 678 196 708 q 276 590 263 648 q 303 472 286 550 q 332 421 310 440 q 394 402 354 402 q 443 402 411 402 q 443 694 443 476 q 581 694 477 694 q 581 402 581 621 q 630 402 594 402 q 691 421 671 402 q 720 472 713 440 q 748 590 729 511 q 794 678 762 648 q 887 708 827 708 q 921 706 906 708 q 946 701 935 704 q 971 694 961 697 q 957 603 965 664 q 949 603 954 603 q 941 606 946 604 q 933 610 937 609 q 922 611 927 611 q 880 569 889 611 q 853 451 870 530 q 853 451 853 451 "},"x":{"x_min":20.34375,"x_max":618.546875,"ha":639,"o":"m 316 256 q 309 237 313 246 q 291 200 302 219 q 173 0 252 134 q 20 0 135 0 q 236 354 74 88 q 27 694 184 439 q 180 694 66 694 q 291 500 208 645 q 301 481 295 491 q 307 463 305 472 q 316 444 311 454 q 322 444 318 444 q 330 463 326 454 q 337 481 333 472 q 347 500 341 491 q 458 694 383 564 q 611 694 496 694 q 402 354 558 609 q 618 0 457 265 q 465 0 580 0 q 347 200 435 50 q 329 237 336 219 q 322 256 325 246 q 316 256 320 256 "},"Ђ":{"x_min":0,"x_max":819.296875,"ha":888,"o":"m 819 180 q 803 89 819 130 q 758 18 788 48 q 690 -25 731 -9 q 603 -42 651 -42 q 560 -39 580 -42 q 522 -32 538 -36 q 485 -20 503 -25 q 500 69 491 9 q 514 69 503 69 q 534 62 523 65 q 576 55 556 55 q 652 86 623 55 q 680 180 680 118 q 680 354 680 238 q 630 480 680 432 q 493 527 581 527 q 430 524 458 527 q 379 516 401 520 q 333 507 354 511 q 333 0 333 337 q 193 0 298 0 q 193 874 193 218 q 0 874 146 874 q 0 972 0 899 q 583 972 146 972 q 583 874 583 948 q 333 874 520 874 q 333 603 333 807 q 389 614 358 609 q 450 621 415 618 q 527 625 485 625 q 649 604 595 625 q 741 548 704 584 q 798 463 778 514 q 819 354 819 413 q 819 180 819 295 "},"с":{"x_min":69.171875,"x_max":603.625,"ha":631,"o":"m 374 611 q 307 596 339 611 q 255 552 278 583 q 221 470 233 520 q 208 347 208 419 q 256 142 208 200 q 389 82 305 82 q 447 93 420 82 q 496 113 474 103 q 541 146 520 127 q 556 146 546 146 q 603 62 568 124 q 541 23 577 40 q 469 -2 511 8 q 374 -13 427 -13 q 151 75 234 -13 q 69 347 69 165 q 90 505 69 439 q 150 618 111 573 q 242 686 188 663 q 360 708 295 708 q 455 697 413 708 q 527 670 497 685 q 590 632 564 652 q 541 548 573 603 q 527 548 538 548 q 481 579 507 565 q 434 600 461 590 q 374 611 406 611 "},"h":{"x_min":103.09375,"x_max":657.875,"ha":757,"o":"m 241 972 q 241 638 241 888 q 287 674 261 657 q 344 697 310 686 q 421 708 378 708 q 516 690 473 708 q 591 641 561 674 q 641 567 623 611 q 657 472 657 523 q 657 0 657 314 q 519 0 623 0 q 519 472 519 118 q 482 567 519 530 q 387 603 446 603 q 329 591 355 603 q 283 562 302 577 q 241 520 260 543 q 241 0 241 347 q 103 0 207 0 q 103 930 103 233 q 145 972 112 941 q 241 972 168 972 "},"я":{"x_min":33.90625,"x_max":602.265625,"ha":708,"o":"m 366 264 q 313 245 335 264 q 283 193 293 226 q 255 104 274 164 q 206 16 237 46 q 116 -13 174 -13 q 56 -6 81 -13 q 33 0 43 -4 q 47 90 37 29 q 54 90 48 90 q 62 85 56 88 q 81 82 73 82 q 123 124 111 82 q 151 215 132 154 q 172 255 158 238 q 199 280 185 271 q 234 298 215 291 q 151 329 187 306 q 93 383 119 348 q 67 478 67 417 q 134 636 67 577 q 345 694 199 694 q 602 694 431 694 q 602 0 602 520 q 463 0 568 0 q 463 264 463 66 q 366 264 439 264 m 463 360 q 463 596 463 420 q 345 596 434 596 q 240 567 272 596 q 207 478 207 537 q 240 390 207 420 q 345 360 272 360 q 463 360 385 360 "},".":{"x_min":54.265625,"x_max":221.09375,"ha":277,"o":"m 54 69 q 77 128 54 105 q 137 153 101 153 q 196 128 173 153 q 221 69 221 105 q 196 9 221 33 q 137 -13 173 -13 q 77 9 101 -13 q 54 69 54 33 "},"Ё":{"x_min":124.796875,"x_max":667.375,"ha":708,"o":"m 124 0 q 124 972 124 242 q 667 972 260 972 q 667 874 667 948 q 264 874 565 874 q 264 556 264 794 q 583 556 343 556 q 583 458 583 531 q 264 458 503 458 q 264 97 264 367 q 667 97 364 97 q 667 0 667 73 q 124 0 531 0 "},";":{"x_min":54.265625,"x_max":221.09375,"ha":277,"o":"m 54 625 q 77 685 54 660 q 137 708 101 708 q 196 685 173 708 q 221 625 221 660 q 196 565 221 588 q 137 541 173 541 q 77 565 101 541 q 54 625 54 588 m 54 69 q 75 128 54 105 q 130 153 99 153 q 196 127 172 153 q 221 55 221 103 q 202 -48 221 -5 q 158 -122 181 -93 q 96 -180 130 -157 q 54 -131 81 -164 q 92 -96 74 -115 q 119 -58 107 -78 q 130 -13 130 -37 q 75 9 99 -13 q 54 69 54 33 "},"f":{"x_min":27.125,"x_max":548,"ha":472,"o":"m 360 888 q 284 857 313 888 q 256 763 256 826 q 256 694 256 740 q 444 694 303 694 q 444 596 444 670 q 256 596 397 596 q 256 0 256 447 q 118 0 222 0 q 118 596 118 149 q 27 596 94 596 q 27 694 27 621 q 118 694 50 694 q 118 763 118 712 q 134 854 118 813 q 180 925 150 895 q 252 969 211 953 q 347 986 294 986 q 427 973 392 986 q 491 946 463 963 q 548 910 523 930 q 500 826 533 881 q 485 826 496 826 q 447 857 467 843 q 406 878 428 868 q 360 888 385 888 "},"Г":{"x_min":124.796875,"x_max":672.796875,"ha":680,"o":"m 124 0 q 124 972 124 242 q 667 972 260 972 q 667 874 667 948 q 264 874 565 874 q 264 0 264 656 q 124 0 229 0 m 575 937 l 672 937 l 672 789 l 575 789 l 575 937 "},"A":{"x_min":20.34375,"x_max":770.46875,"ha":791,"o":"m 632 0 q 556 249 613 62 q 236 249 476 249 q 160 0 217 187 q 20 0 124 0 q 305 972 92 242 q 485 972 351 972 q 770 0 557 729 q 632 0 736 0 m 264 347 q 527 347 329 347 q 416 729 500 442 q 408 762 411 744 q 402 794 405 778 q 398 826 400 811 q 393 826 397 826 q 389 793 392 809 q 382 760 386 777 q 374 729 379 744 q 264 347 337 602 "},"6":{"x_min":75.96875,"x_max":687.71875,"ha":742,"o":"m 75 569 q 164 887 75 788 q 402 986 250 986 q 508 973 462 986 q 587 946 556 963 q 652 910 625 930 q 603 826 636 881 q 590 826 600 826 q 542 857 569 843 q 486 878 519 868 q 416 888 455 888 q 335 872 371 888 q 271 817 298 855 q 229 718 244 779 q 215 569 215 657 q 264 596 236 584 q 321 617 287 609 q 396 625 354 625 q 610 545 531 625 q 687 320 687 466 q 609 69 687 151 q 390 -13 530 -13 q 157 69 237 -13 q 75 320 75 151 q 75 569 75 402 m 367 527 q 303 519 332 527 q 255 500 275 511 q 215 472 231 486 q 215 320 215 421 q 263 138 215 193 q 389 82 310 82 q 503 138 457 82 q 548 320 548 193 q 500 476 548 423 q 367 527 451 527 "},"Ь":{"x_min":124.796875,"x_max":729.765625,"ha":777,"o":"m 389 611 q 645 531 562 611 q 729 305 729 453 q 645 78 729 158 q 389 0 562 0 q 124 0 301 0 q 124 972 124 242 q 264 972 160 972 q 264 611 264 881 q 389 611 295 611 m 264 514 q 264 97 264 409 q 389 97 295 97 q 590 305 590 97 q 389 514 590 514 q 264 514 347 514 "},"O":{"x_min":75.96875,"x_max":756.890625,"ha":833,"o":"m 215 485 q 231 294 215 370 q 276 169 248 217 q 341 103 305 123 q 416 82 378 82 q 491 103 455 82 q 556 169 527 123 q 600 294 584 217 q 618 485 618 370 q 600 678 618 599 q 556 801 584 755 q 491 869 527 849 q 416 888 455 888 q 341 869 378 888 q 276 801 305 849 q 231 678 248 755 q 215 485 215 599 m 756 485 q 732 255 756 349 q 661 100 706 161 q 554 13 618 40 q 416 -13 491 -13 q 278 13 341 -13 q 170 100 215 40 q 101 255 126 161 q 75 485 75 349 q 101 716 75 621 q 170 870 126 811 q 278 959 215 931 q 416 986 341 986 q 554 959 491 986 q 661 870 618 931 q 732 716 706 811 q 756 485 756 621 "},"n":{"x_min":103.09375,"x_max":657.875,"ha":757,"o":"m 387 603 q 329 591 355 603 q 283 562 302 577 q 241 520 260 543 q 241 0 241 347 q 103 0 207 0 q 103 694 103 173 q 199 694 127 694 q 214 611 203 674 q 221 611 215 611 q 269 659 240 637 q 332 693 294 678 q 421 708 368 708 q 516 690 473 708 q 591 641 561 674 q 641 567 623 611 q 657 472 657 523 q 657 0 657 314 q 519 0 623 0 q 519 472 519 118 q 482 567 519 530 q 387 603 446 603 "},"3":{"x_min":20.34375,"x_max":638.890625,"ha":695,"o":"m 42 972 q 611 972 184 972 q 611 874 611 948 q 298 569 533 798 q 554 491 470 569 q 638 278 638 412 q 554 63 638 141 q 291 -13 469 -13 q 172 -2 223 -13 q 89 23 122 8 q 20 62 48 40 q 69 146 36 90 q 82 146 73 146 q 132 113 104 127 q 193 93 158 103 q 278 82 230 82 q 446 132 393 82 q 500 278 500 183 q 446 421 500 371 q 278 472 393 472 q 131 472 229 472 q 131 569 131 496 q 444 874 210 645 q 42 874 343 874 q 42 972 42 899 "},"9":{"x_min":54.265625,"x_max":666.015625,"ha":742,"o":"m 666 402 q 642 214 666 293 q 576 84 619 135 q 474 10 534 35 q 339 -13 413 -13 q 231 -2 278 -13 q 154 23 185 8 q 89 62 116 40 q 137 146 105 90 q 151 146 141 146 q 198 113 172 127 q 253 93 222 103 q 325 82 284 82 q 406 100 368 82 q 469 154 443 116 q 511 252 497 191 q 526 402 526 313 q 477 374 504 387 q 420 355 454 363 q 345 347 387 347 q 131 425 210 347 q 54 652 54 505 q 132 903 54 820 q 351 986 211 986 q 584 903 504 986 q 666 652 666 820 q 666 402 666 569 m 373 444 q 438 453 409 444 q 485 472 466 461 q 526 500 510 484 q 526 652 526 550 q 478 832 526 777 q 352 888 430 888 q 238 832 284 888 q 192 652 192 777 q 241 496 192 548 q 373 444 290 444 "},"l":{"x_min":103.09375,"x_max":241.453125,"ha":347,"o":"m 103 930 q 145 972 112 941 q 241 972 168 972 q 241 0 241 729 q 103 0 207 0 q 103 930 103 233 "},"4":{"x_min":13.5625,"x_max":721.625,"ha":749,"o":"m 721 333 q 721 236 721 309 q 611 236 694 236 q 611 0 611 177 q 472 0 576 0 q 472 236 472 59 q 13 236 358 236 q 13 333 13 260 q 472 972 128 493 q 611 972 507 972 q 611 333 611 812 q 721 333 638 333 m 166 333 q 472 333 242 333 q 472 694 472 423 q 473 724 472 706 q 477 755 474 740 q 482 792 480 771 q 477 792 481 792 q 458 755 467 771 q 440 724 450 740 q 423 694 431 706 q 166 333 337 573 "},"p":{"x_min":103.09375,"x_max":672.796875,"ha":742,"o":"m 241 111 q 279 97 257 103 q 321 88 297 92 q 373 82 344 82 q 436 97 406 82 q 485 141 465 111 q 520 223 508 173 q 533 347 533 274 q 522 466 533 417 q 488 545 510 515 q 443 590 469 576 q 387 603 416 603 q 329 591 355 603 q 283 562 302 577 q 241 520 260 543 q 241 111 241 383 m 199 -278 q 103 -278 176 -278 q 103 694 103 -35 q 199 694 127 694 q 214 611 203 674 q 221 611 215 611 q 269 659 240 637 q 332 693 294 678 q 421 708 368 708 q 516 686 472 708 q 595 618 562 663 q 651 505 630 573 q 672 347 672 439 q 651 188 672 255 q 592 74 630 120 q 504 8 556 31 q 394 -13 454 -13 q 335 -8 362 -13 q 286 6 306 -1 q 241 27 261 14 q 241 -236 241 -59 q 199 -278 231 -246 "},"Ъ":{"x_min":13.5625,"x_max":812.515625,"ha":860,"o":"m 13 972 q 347 972 97 972 q 347 611 347 881 q 472 611 378 611 q 729 531 645 611 q 812 305 812 453 q 729 78 812 158 q 472 0 645 0 q 208 0 383 0 q 208 874 208 218 q 13 874 160 874 q 13 972 13 899 m 347 514 q 347 97 347 409 q 472 97 378 97 q 674 305 674 97 q 472 514 674 514 q 347 514 430 514 "},"Ю":{"x_min":124.796875,"x_max":1048.53125,"ha":1125,"o":"m 721 986 q 853 959 793 986 q 956 870 912 931 q 1024 716 999 811 q 1048 485 1048 621 q 1024 255 1048 349 q 956 100 999 161 q 853 13 912 40 q 721 -13 793 -13 q 596 10 653 -13 q 496 90 538 36 q 427 231 454 143 q 396 444 401 320 q 264 444 351 444 q 264 0 264 333 q 124 0 229 0 q 124 972 124 242 q 264 972 160 972 q 264 541 264 864 q 396 541 297 541 q 427 746 401 660 q 496 883 454 830 q 596 961 538 937 q 721 986 653 986 m 721 82 q 789 103 755 82 q 850 169 823 123 q 892 294 876 217 q 910 485 910 370 q 892 678 910 599 q 850 801 876 755 q 789 869 823 849 q 721 888 755 888 q 655 869 689 888 q 594 801 621 849 q 552 678 568 755 q 534 485 534 599 q 552 294 534 370 q 594 169 568 217 q 655 103 621 123 q 721 82 689 82 "}}}
